<svg xmlns="http://www.w3.org/2000/svg" xmlns:xlink="http://www.w3.org/1999/xlink" xml:space="preserve" style="shape-rendering:geometricPrecision;text-rendering:geometricPrecision;image-rendering:optimizeQuality;" viewBox="0 0 8.66666 10.833325" x="0px" y="0px" fill-rule="evenodd" clip-rule="evenodd"><defs><style type="text/css">
   
    .fil1 {fill:none}
    .fil0 {fill:black;fill-rule:nonzero}
   
  </style></defs><g><path class="fil0" d="M2.84516 4.61828l0.374669 0c0.0843937,0 0.148689,0.00638189 0.19313,0.0193858 0.0595709,0.0174921 0.11063,0.0486929 0.152941,0.0936063 0.0425512,0.0446772 0.074937,0.0995197 0.0971575,0.164291 0.0219843,0.0650039 0.0330945,0.144906 0.0330945,0.240169 0,0.0834449 -0.0104016,0.155543 -0.0312047,0.216059 -0.0252913,0.073752 -0.0614606,0.133555 -0.108736,0.179181 -0.0354606,0.034748 -0.0834449,0.0616969 -0.143961,0.0810787 -0.0451496,0.0144213 -0.105665,0.0215118 -0.181547,0.0215118l-0.385543 0 0 -1.01528zm0.204949 0.171854l0 0.672283 0.152937 0c0.0572087,0 0.0985748,-0.00307087 0.124106,-0.00968898 0.0330945,-0.00827559 0.060752,-0.0222205 0.0827362,-0.0420787 0.0219803,-0.0198543 0.0397126,-0.0527126 0.0536575,-0.0980984 0.0137126,-0.0453898 0.0208031,-0.107559 0.0208031,-0.186039 0,-0.0784803 -0.00709055,-0.138524 -0.0208031,-0.180598 -0.0139449,-0.0420787 -0.0333307,-0.074937 -0.0581496,-0.0983386 -0.0250591,-0.0236378 -0.0567323,-0.0394764 -0.0950276,-0.047748 -0.0286024,-0.00661811 -0.084626,-0.00969291 -0.168307,-0.00969291l-0.0919528 0zm0.778417 0.342051c0,-0.103535 0.0153661,-0.190291 0.0463307,-0.260496 0.0231654,-0.0515354 0.0546063,-0.0981024 0.0945551,-0.139232 0.0399488,-0.0408976 0.0836811,-0.0713898 0.131197,-0.091248 0.0633504,-0.0269488 0.136157,-0.040185 0.218894,-0.040185 0.149634,0 0.269244,0.0463307 0.359071,0.139232 0.0898268,0.0926654 0.13474,0.221732 0.13474,0.386965 0,0.164055 -0.0446772,0.292177 -0.133795,0.384839 -0.0891181,0.0924291 -0.208256,0.13876 -0.357181,0.13876 -0.151051,0 -0.271134,-0.0460945 -0.360252,-0.138051 -0.0891181,-0.092189 -0.133559,-0.21913 -0.133559,-0.380583zm0.211094 -0.00685433c0,0.114886 0.0267126,0.20211 0.0796614,0.261445 0.053189,0.0593307 0.120559,0.0888819 0.202346,0.0888819 0.0815551,0 0.148689,-0.029315 0.201165,-0.0884094 0.0522441,-0.0588622 0.0784803,-0.147031 0.0784803,-0.264756 0,-0.116299 -0.0255276,-0.203055 -0.0763504,-0.260496 -0.0510591,-0.0572047 -0.118906,-0.085811 -0.203295,-0.085811 -0.084626,0 -0.152705,0.0290787 -0.204472,0.0869921 -0.0515315,0.0579134 -0.0775354,0.145142 -0.0775354,0.262154zm1.58332 0.134976l0.198563 0.062878c-0.0304921,0.110866 -0.0810787,0.19313 -0.151996,0.247028 -0.0706772,0.0536575 -0.160744,0.0806063 -0.269713,0.0806063 -0.13474,0 -0.245606,-0.0460945 -0.332362,-0.138051 -0.086752,-0.092189 -0.130248,-0.218185 -0.130248,-0.377744 0,-0.16902 0.0437323,-0.300213 0.130957,-0.393823 0.0872283,-0.093374 0.201878,-0.140177 0.344181,-0.140177 0.124098,0 0.225035,0.0366417 0.302571,0.110157 0.0463346,0.0432598 0.0808465,0.105665 0.104012,0.18698l-0.203055 0.0484606c-0.0118228,-0.0527126 -0.036878,-0.0943189 -0.0751732,-0.124811 -0.0380591,-0.0304961 -0.0843898,-0.045626 -0.138756,-0.045626 -0.0751693,0 -0.136394,0.0269488 -0.183201,0.0810827 -0.0468031,0.0538976 -0.0702047,0.141358 -0.0702047,0.26239 0,0.128358 0.0229291,0.219839 0.0692598,0.274209 0.0460984,0.0546063 0.106138,0.0817913 0.17989,0.0817913 0.0546024,0 0.101409,-0.0172559 0.14065,-0.0520079 0.0392402,-0.0345118 0.0673701,-0.0891181 0.084626,-0.163343z"/></g><path class="fil0" d="M2.40683 4.06374c0,0.0441811 0.0358189,0.08 0.08,0.08 0.0441811,0 0.08,-0.0358189 0.08,-0.08l0 -2.25041 2.80151 0 0.731484 0.731484 0 1.51893c0,0.0441811 0.0358189,0.08 0.08,0.08 0.0441811,0 0.08,-0.0358189 0.08,-0.08l0 -1.55205 -3.93701e-006 0c0,-0.0204724 -0.00780709,-0.0409488 -0.0234291,-0.0565669l-3.93701e-006 3.93701e-006 -0.77802 -0.77802c-0.0145039,-0.0146772 -0.0346378,-0.0237756 -0.0569016,-0.0237756l-2.91464 0c-0.0441811,0 -0.08,0.0358189 -0.08,0.08l0 2.33041zm3.853 2.12438c0,-0.0441811 -0.0358189,-0.08 -0.08,-0.08 -0.0441811,0 -0.08,0.0358189 -0.08,0.08l0 0.665213 -3.533 0 0 -0.665213c0,-0.0441811 -0.0358189,-0.08 -0.08,-0.08 -0.0441811,0 -0.08,0.0358189 -0.08,0.08l0 0.745213c0,0.0441811 0.0358189,0.08 0.08,0.08l3.693 0c0.0441811,0 0.08,-0.0358189 0.08,-0.08l0 -0.745213z"/><path class="fil0" d="M5.48147 1.73333c0,-0.0441811 -0.0358189,-0.08 -0.08,-0.08 -0.0441811,0 -0.08,0.0358189 -0.08,0.08l0 0.389177c0,0.129106 0.0527638,0.246421 0.137756,0.331417 0.0849961,0.0849921 0.202311,0.137756 0.331417,0.137756l0.389177 0c0.0441811,0 0.08,-0.0358189 0.08,-0.08 0,-0.0441811 -0.0358189,-0.08 -0.08,-0.08l-0.389177 0c-0.084937,0 -0.162217,-0.034811 -0.218291,-0.0908819 -0.0560709,-0.0560748 -0.0908819,-0.133354 -0.0908819,-0.218291l0 -0.389177z"/><path class="fil0" d="M2.04518 6.10811l4.5763 0 0 -1.96438 -4.5763 0 0 1.96438zm4.6563 0.16l-4.7363 0c-0.0441811,0 -0.08,-0.0358189 -0.08,-0.08l0 -2.12438c0,-0.0441811 0.0358189,-0.08 0.08,-0.08l4.7363 0c0.0441811,0 0.08,0.0358189 0.08,0.08l0 2.12438c0,0.0441811 -0.0358189,0.08 -0.08,0.08z"/><path class="fil0" d="M3.11986 2.5703c-0.0441811,0 -0.08,0.0358189 -0.08,0.08 0,0.0441811 0.0358189,0.08 0.08,0.08l1.72368 0c0.0441811,0 0.08,-0.0358189 0.08,-0.08 0,-0.0441811 -0.0358189,-0.08 -0.08,-0.08l-1.72368 0z"/><path class="fil0" d="M3.11986 3.01156c-0.0441811,0 -0.08,0.0358189 -0.08,0.08 0,0.0441811 0.0358189,0.08 0.08,0.08l2.42694 0c0.0441811,0 0.08,-0.0358189 0.08,-0.08 0,-0.0441811 -0.0358189,-0.08 -0.08,-0.08l-2.42694 0z"/><path class="fil0" d="M3.11986 3.45282c-0.0441811,0 -0.08,0.0358189 -0.08,0.08 0,0.0441811 0.0358189,0.08 0.08,0.08l2.42694 0c0.0441811,0 0.08,-0.0358189 0.08,-0.08 0,-0.0441811 -0.0358189,-0.08 -0.08,-0.08l-2.42694 0z"/><rect class="fil1" width="8.66666" height="8.66666"/><text x="0" y="23.66666" fill="#000000" font-size="5px" font-weight="bold" font-family="'Helvetica Neue', Helvetica, Arial-Unicode, Arial, Sans-serif">Created by IYIKON</text><text x="0" y="28.66666" fill="#000000" font-size="5px" font-weight="bold" font-family="'Helvetica Neue', Helvetica, Arial-Unicode, Arial, Sans-serif">from the Noun Project</text></svg>