<svg xmlns="http://www.w3.org/2000/svg" version="1.1" viewBox="-5.0 -10.0 110.0 135.0">
 <path d="m76.176 26.336h-57.574c-0.98437 0-1.7852 0.79687-1.7852 1.7852v48.984c0 0.98438 0.79688 1.7852 1.7852 1.7852h57.57c0.98438 0 1.7852-0.79688 1.7852-1.7852l0.003907-48.988c0-0.98438-0.79688-1.7852-1.7852-1.7852zm-1.7852 3.5664v37.969l-10.398-10.398c-0.69531-0.69531-1.8242-0.69531-2.5234 0l-8.8047 8.8047-14.785-14.785c-0.66797-0.66797-1.8555-0.66797-2.5234 0l-14.973 14.973 0.003907-36.562zm-54.004 41.605 16.234-16.234 20.047 20.047h-36.281zm41.324 3.8125-6.5195-6.5195 7.543-7.543 11.66 11.66v2.4023zm-30.055-28.523c3.3516 0 6.0781-2.7266 6.0781-6.0781s-2.7266-6.0781-6.0781-6.0781-6.0781 2.7266-6.0781 6.0781 2.7266 6.0781 6.0781 6.0781zm0-8.5859c1.3828 0 2.5078 1.125 2.5078 2.5078s-1.125 2.5078-2.5078 2.5078-2.5078-1.125-2.5078-2.5078 1.125-2.5078 2.5078-2.5078zm51.523-15.312v45.445c0 0.98438-0.79688 1.7852-1.7852 1.7852-0.98438 0-1.7852-0.79688-1.7852-1.7852l0.003906-43.664h-51.625c-0.98438 0-1.7852-0.79688-1.7852-1.7852 0-0.98438 0.79688-1.7852 1.7852-1.7852h53.41c0.98437 0 1.7852 0.79688 1.7852 1.7852z"/>
<text x="0.0" y="117.5" font-size="5.0" font-weight="bold" font-family="Arbeit Regular, Helvetica, Arial-Unicode, Arial, Sans-serif" fill="#000000"></text><text x="0.0" y="122.5" font-size="5.0" font-weight="bold" font-family="Arbeit Regular, Helvetica, Arial-Unicode, Arial, Sans-serif" fill="#000000"></text></svg>