<svg xmlns="http://www.w3.org/2000/svg" xmlns:xlink="http://www.w3.org/1999/xlink" xml:space="preserve" style="shape-rendering:geometricPrecision;text-rendering:geometricPrecision;image-rendering:optimizeQuality;" viewBox="0 0 8.66666 10.833325" x="0px" y="0px" fill-rule="evenodd" clip-rule="evenodd"><defs><style type="text/css">
   
    .fil1 {fill:none}
    .fil0 {fill:black;fill-rule:nonzero}
   
  </style></defs><g><path class="fil0" d="M2.69446 4.61828l0.374669 0c0.0843937,0 0.148689,0.00638189 0.19313,0.0193858 0.0595709,0.0174921 0.11063,0.0486929 0.152941,0.0936063 0.0425512,0.0446772 0.074937,0.0995197 0.0971575,0.164291 0.0219843,0.0650039 0.0330945,0.144906 0.0330945,0.240169 0,0.0834449 -0.0104016,0.155543 -0.0312047,0.216059 -0.0252913,0.073752 -0.0614606,0.133555 -0.108736,0.179181 -0.0354606,0.034748 -0.0834449,0.0616969 -0.143961,0.0810787 -0.0451496,0.0144213 -0.105665,0.0215118 -0.181547,0.0215118l-0.385543 0 0 -1.01528zm0.204949 0.171854l0 0.672283 0.152937 0c0.0572087,0 0.0985748,-0.00307087 0.124106,-0.00968898 0.0330945,-0.00827559 0.060752,-0.0222205 0.0827362,-0.0420787 0.0219803,-0.0198543 0.0397126,-0.0527126 0.0536575,-0.0980984 0.0137126,-0.0453898 0.0208031,-0.107559 0.0208031,-0.186039 0,-0.0784803 -0.00709055,-0.138524 -0.0208031,-0.180598 -0.0139449,-0.0420787 -0.0333307,-0.074937 -0.0581496,-0.0983386 -0.0250591,-0.0236378 -0.0567323,-0.0394764 -0.0950276,-0.047748 -0.0286024,-0.00661811 -0.084626,-0.00969291 -0.168307,-0.00969291l-0.0919528 0zm0.96398 0.843429l-0.242295 -1.01528 0.209673 0 0.153181 0.697343 0.185563 -0.697343 0.243717 0 0.178 0.709161 0.15578 -0.709161 0.206362 0 -0.246551 1.01528 -0.217476 0 -0.20211 -0.759039 -0.201638 0.759039 -0.222205 0zm1.667 -0.373256l0 -0.171142 0.441807 0 0 0.404457c-0.0430236,0.0416024 -0.105193,0.0782441 -0.186744,0.109921 -0.0815551,0.031437 -0.164055,0.0472756 -0.2475,0.0472756 -0.106138,0 -0.198799,-0.0222205 -0.277748,-0.0666614 -0.0789528,-0.0446772 -0.138287,-0.108264 -0.178,-0.191236 -0.0397126,-0.0829724 -0.0595709,-0.173035 -0.0595709,-0.270429 0,-0.105661 0.0222205,-0.199744 0.0664252,-0.282008 0.0444409,-0.0820276 0.109213,-0.145142 0.19478,-0.188874 0.0650079,-0.0338031 0.146087,-0.0505866 0.243004,-0.0505866 0.125996,0 0.224571,0.0264764 0.295248,0.079189 0.0709173,0.0529528 0.116539,0.125996 0.13687,0.21937l-0.203531 0.0380551c-0.0144173,-0.049878 -0.0413661,-0.0893543 -0.0808425,-0.118193 -0.0394764,-0.0288386 -0.0886457,-0.0432598 -0.147744,-0.0432598 -0.0895906,0 -0.16074,0.0283701 -0.213693,0.0851024 -0.0529449,0.0569685 -0.079185,0.141122 -0.079185,0.252933 0,0.120323 0.0267126,0.210858 0.0803661,0.271138 0.0534252,0.0602756 0.123634,0.0902992 0.210386,0.0902992 0.0430236,0 0.0860433,-0.00851181 0.129303,-0.0252953 0.0430236,-0.0167835 0.0801378,-0.0373465 0.111102,-0.0612244l0 -0.128831 -0.234732 0z"/></g><path class="fil0" d="M2.40683 4.06374c0,0.0441811 0.0358189,0.08 0.08,0.08 0.0441811,0 0.08,-0.0358189 0.08,-0.08l0 -2.25041 2.80151 0 0.731484 0.731484 0 1.51893c0,0.0441811 0.0358189,0.08 0.08,0.08 0.0441811,0 0.08,-0.0358189 0.08,-0.08l0 -1.55205 -3.93701e-006 0c0,-0.0204724 -0.00780709,-0.0409488 -0.0234291,-0.0565669l-3.93701e-006 3.93701e-006 -0.77802 -0.77802c-0.0145039,-0.0146772 -0.0346378,-0.0237756 -0.0569016,-0.0237756l-2.91464 0c-0.0441811,0 -0.08,0.0358189 -0.08,0.08l0 2.33041zm3.853 2.12438c0,-0.0441811 -0.0358189,-0.08 -0.08,-0.08 -0.0441811,0 -0.08,0.0358189 -0.08,0.08l0 0.665213 -3.533 0 0 -0.665213c0,-0.0441811 -0.0358189,-0.08 -0.08,-0.08 -0.0441811,0 -0.08,0.0358189 -0.08,0.08l0 0.745213c0,0.0441811 0.0358189,0.08 0.08,0.08l3.693 0c0.0441811,0 0.08,-0.0358189 0.08,-0.08l0 -0.745213z"/><path class="fil0" d="M5.48147 1.73333c0,-0.0441811 -0.0358189,-0.08 -0.08,-0.08 -0.0441811,0 -0.08,0.0358189 -0.08,0.08l0 0.389177c0,0.129106 0.0527638,0.246421 0.137756,0.331417 0.0849961,0.0849921 0.202311,0.137756 0.331417,0.137756l0.389177 0c0.0441811,0 0.08,-0.0358189 0.08,-0.08 0,-0.0441811 -0.0358189,-0.08 -0.08,-0.08l-0.389177 0c-0.084937,0 -0.162217,-0.034811 -0.218291,-0.0908819 -0.0560709,-0.0560748 -0.0908819,-0.133354 -0.0908819,-0.218291l0 -0.389177z"/><path class="fil0" d="M2.04518 6.10811l4.5763 0 0 -1.96438 -4.5763 0 0 1.96438zm4.6563 0.16l-4.7363 0c-0.0441811,0 -0.08,-0.0358189 -0.08,-0.08l0 -2.12438c0,-0.0441811 0.0358189,-0.08 0.08,-0.08l4.7363 0c0.0441811,0 0.08,0.0358189 0.08,0.08l0 2.12438c0,0.0441811 -0.0358189,0.08 -0.08,0.08z"/><path class="fil0" d="M3.11986 2.5703c-0.0441811,0 -0.08,0.0358189 -0.08,0.08 0,0.0441811 0.0358189,0.08 0.08,0.08l1.72368 0c0.0441811,0 0.08,-0.0358189 0.08,-0.08 0,-0.0441811 -0.0358189,-0.08 -0.08,-0.08l-1.72368 0z"/><path class="fil0" d="M3.11986 3.01156c-0.0441811,0 -0.08,0.0358189 -0.08,0.08 0,0.0441811 0.0358189,0.08 0.08,0.08l2.42694 0c0.0441811,0 0.08,-0.0358189 0.08,-0.08 0,-0.0441811 -0.0358189,-0.08 -0.08,-0.08l-2.42694 0z"/><path class="fil0" d="M3.11986 3.45282c-0.0441811,0 -0.08,0.0358189 -0.08,0.08 0,0.0441811 0.0358189,0.08 0.08,0.08l2.42694 0c0.0441811,0 0.08,-0.0358189 0.08,-0.08 0,-0.0441811 -0.0358189,-0.08 -0.08,-0.08l-2.42694 0z"/><rect class="fil1" width="8.66666" height="8.66666"/><text x="0" y="23.66666" fill="#000000" font-size="5px" font-weight="bold" font-family="'Helvetica Neue', Helvetica, Arial-Unicode, Arial, Sans-serif">Created by IYIKON</text><text x="0" y="28.66666" fill="#000000" font-size="5px" font-weight="bold" font-family="'Helvetica Neue', Helvetica, Arial-Unicode, Arial, Sans-serif">from the Noun Project</text></svg>