<svg xmlns="http://www.w3.org/2000/svg" xmlns:xlink="http://www.w3.org/1999/xlink" version="1.1" x="0px" y="0px" viewBox="0 0 98 122.5" style="enable-background:new 0 0 98 98;" xml:space="preserve"><path d="M86.244,42.311h-5.388V23.326l-0.386-0.386c0,0-0.001-0.001-0.001-0.001L65.957,8.427c0,0-0.001-0.001-0.001-0.001  L65.57,8.04H23.067c-3.266,0-5.923,2.657-5.923,5.923v28.348h-5.388c-2.049,0-3.716,1.667-3.716,3.716v26.631  c0,2.049,1.667,3.717,3.716,3.717h5.388v7.662c0,3.266,2.657,5.923,5.923,5.923h51.865c3.266,0,5.923-2.657,5.923-5.923v-7.662  h5.388c2.049,0,3.716-1.667,3.716-3.717V46.027C89.96,43.978,88.293,42.311,86.244,42.311z M66.343,12.551l10.001,10.001h-6.721  c-1.808,0-3.28-1.471-3.28-3.28V12.551z M19.787,13.963c0-1.809,1.471-3.28,3.28-3.28h40.634v8.589c0,3.266,2.657,5.923,5.922,5.923  h8.589v17.117H19.787V13.963z M78.213,84.037c0,1.809-1.471,3.281-3.28,3.281H23.067c-1.809,0-3.28-1.472-3.28-3.281v-7.662h58.426  V84.037z M87.318,72.659c0,0.592-0.482,1.074-1.074,1.074h-5.388H17.145h-5.388c-0.592,0-1.074-0.482-1.074-1.074V46.027  c0-0.592,0.482-1.074,1.074-1.074h5.388h63.711h5.388c0.592,0,1.074,0.482,1.074,1.074V72.659z M70.389,33.227  c0,0.73-0.591,1.321-1.321,1.321H28.933c-0.73,0-1.321-0.591-1.321-1.321c0-0.73,0.591-1.321,1.321-1.321h40.135  C69.797,31.906,70.389,32.497,70.389,33.227z M27.611,22.821c0-0.73,0.591-1.321,1.321-1.321h25.666c0.73,0,1.321,0.591,1.321,1.321  s-0.591,1.321-1.321,1.321H28.933C28.203,24.143,27.611,23.551,27.611,22.821z M77.728,64.998c0.227,0.295,0.431,0.636,0.431,1.045  c0,0.772-0.59,1.363-1.385,1.363c-0.591,0-0.931-0.227-1.272-0.681l-4.269-5.564l-4.201,5.473c-0.386,0.5-0.75,0.772-1.363,0.772  c-0.636,0-1.272-0.5-1.272-1.295c0-0.386,0.159-0.704,0.409-1.045l4.724-5.859l-4.451-5.519c-0.227-0.295-0.431-0.659-0.431-1.045  c0-0.772,0.591-1.363,1.385-1.363c0.59,0,0.931,0.227,1.272,0.681l4.02,5.291l3.974-5.201c0.363-0.5,0.749-0.772,1.363-0.772  c0.613,0,1.272,0.5,1.272,1.272c0,0.409-0.159,0.727-0.431,1.067l-4.451,5.541L77.728,64.998z M62.172,62.727v0.045  c0,2.975-2.339,4.746-5.677,4.746c-2.157,0-4.201-0.681-5.973-1.998c-0.318-0.227-0.545-0.613-0.545-1.067  c0-0.727,0.59-1.295,1.317-1.295c0.386,0,0.636,0.114,0.818,0.25c1.317,1.045,2.725,1.635,4.451,1.635  c1.726,0,2.816-0.818,2.816-1.999v-0.045c0-1.136-0.636-1.749-3.588-2.43c-3.384-0.818-5.291-1.817-5.291-4.747v-0.045  c0-2.725,2.271-4.61,5.427-4.61c1.999,0,3.611,0.522,5.042,1.476c0.318,0.182,0.613,0.568,0.613,1.113  c0,0.727-0.591,1.295-1.317,1.295c-0.273,0-0.5-0.068-0.727-0.204c-1.226-0.795-2.407-1.204-3.656-1.204  c-1.635,0-2.589,0.84-2.589,1.885v0.045c0,1.226,0.727,1.771,3.793,2.498C60.446,58.889,62.172,60.093,62.172,62.727z M48.137,66.02  c0,0.704-0.568,1.272-1.272,1.272h-8.584c-0.795,0-1.408-0.613-1.408-1.408V52.666c0-0.772,0.613-1.385,1.408-1.385  c0.772,0,1.385,0.613,1.385,1.385v12.082h7.199C47.569,64.748,48.137,65.316,48.137,66.02z M33.171,64.998  c0.227,0.295,0.431,0.636,0.431,1.045c0,0.772-0.59,1.363-1.385,1.363c-0.59,0-0.931-0.227-1.272-0.681l-4.269-5.564l-4.201,5.473  c-0.386,0.5-0.749,0.772-1.363,0.772c-0.636,0-1.272-0.5-1.272-1.295c0-0.386,0.159-0.704,0.409-1.045l4.724-5.859l-4.451-5.519  c-0.227-0.295-0.431-0.659-0.431-1.045c0-0.772,0.59-1.363,1.385-1.363c0.59,0,0.931,0.227,1.272,0.681l4.02,5.291l3.974-5.201  c0.363-0.5,0.749-0.772,1.363-0.772c0.613,0,1.272,0.5,1.272,1.272c0,0.409-0.159,0.727-0.431,1.067l-4.451,5.541L33.171,64.998z"/><text x="0" y="113" fill="#000000" font-size="5px" font-weight="bold" font-family="'Helvetica Neue', Helvetica, Arial-Unicode, Arial, Sans-serif">Created by Happy Girl</text><text x="0" y="118" fill="#000000" font-size="5px" font-weight="bold" font-family="'Helvetica Neue', Helvetica, Arial-Unicode, Arial, Sans-serif">from the Noun Project</text></svg>