<?xml version="1.0" encoding="UTF-8"?>
<svg version="1.1" xmlns="http://www.w3.org/2000/svg" width="1787" height="348">
<path d="M0 0 C1.03395905 -0.00571014 2.06791809 -0.01142029 3.13320923 -0.01730347 C4.26762451 -0.01842133 5.40203979 -0.01953918 6.5708313 -0.02069092 C8.36431503 -0.02813828 8.36431503 -0.02813828 10.19403076 -0.03573608 C13.48028807 -0.04785483 16.76650976 -0.05530846 20.0527854 -0.05974674 C22.11484517 -0.0626839 24.17689945 -0.06679045 26.23895645 -0.07125092 C32.71509871 -0.08494176 39.19122831 -0.09459422 45.66738403 -0.09845281 C53.09409141 -0.10290347 60.52061197 -0.12030353 67.94726264 -0.1494534 C73.71321242 -0.17128096 79.47911056 -0.18116855 85.24510109 -0.18249393 C88.67473358 -0.18352933 92.10419093 -0.18915741 95.53377914 -0.20731354 C149.72442849 -0.45127484 149.72442849 -0.45127484 169.24710083 17.89044189 C182.74472305 32.2860914 185.31388936 51.82903698 185.29788208 70.84356689 C185.30216721 72.0056366 185.30645233 73.1677063 185.31086731 74.36499023 C185.31656718 76.80527093 185.31714329 79.24556861 185.31277466 81.68585205 C185.30962037 85.36763289 185.33311094 89.04860399 185.35842896 92.73028564 C185.41924961 115.17301427 184.15761003 136.72326413 168.19241333 154.10528564 C153.91547764 167.64171637 133.64871961 170.28453089 114.85745239 170.30157471 C113.54451706 170.30653961 112.23158173 170.31150452 110.87886047 170.31661987 C107.2944776 170.32966981 103.71011338 170.3361728 100.12571049 170.34063053 C97.88553939 170.34356976 95.64537332 170.34767587 93.40520477 170.3521347 C86.39304163 170.36578233 79.38089006 170.37546561 72.36871457 170.3793366 C64.27796904 170.38382828 56.18739152 170.40143875 48.09669709 170.43033719 C41.8358355 170.45192418 35.57502134 170.46203907 29.31412292 170.46337771 C25.57661061 170.46442674 21.83925685 170.47035652 18.10178375 170.48819733 C13.94080798 170.50767784 9.78018736 170.5034011 5.61917114 170.49688721 C4.37860458 170.50610199 3.13803802 170.51531677 1.85987854 170.52481079 C0.16500053 170.51645706 0.16500053 170.51645706 -1.56411743 170.50793457 C-2.54779675 170.50940113 -3.53147606 170.51086769 -4.54496384 170.51237869 C-7.00289917 170.14044189 -7.00289917 170.14044189 -8.81943417 169.02551651 C-10.58606362 166.21155216 -10.37758486 163.91750047 -10.37712097 160.61175537 C-10.38109538 159.94568976 -10.38506978 159.27962415 -10.38916463 158.59337473 C-10.39880501 156.35689487 -10.38695961 154.12104485 -10.37521362 151.88458252 C-10.37764102 150.28311425 -10.38135984 148.6816475 -10.38627625 147.08018494 C-10.39569599 142.72691356 -10.38625077 138.37386659 -10.37294412 134.02061272 C-10.36164365 129.46961297 -10.36573604 124.91862449 -10.36769104 120.36761475 C-10.36857446 112.72430751 -10.35748359 105.08108888 -10.33908081 97.43780518 C-10.31791245 88.59513014 -10.31440302 79.75258494 -10.32064277 70.9098897 C-10.32633323 62.41121738 -10.32069452 53.91259089 -10.30946922 45.41392517 C-10.30481902 41.79356541 -10.3039512 38.17323364 -10.30605507 34.5528717 C-10.30793576 30.29130024 -10.29985097 26.02986133 -10.28399467 21.76832008 C-10.2797444 20.20217754 -10.27890625 18.63602156 -10.28168488 17.06987572 C-10.28489674 14.93614677 -10.27585042 12.80281637 -10.26359558 10.66912842 C-10.26051628 8.87609409 -10.26051628 8.87609409 -10.25737476 7.04683685 C-10.00289917 4.14044189 -10.00289917 4.14044189 -8.00289917 1.14044189 C-5.03715179 0.15185943 -3.09416346 0.0102367 0 0 Z M27.99710083 35.14044189 C26.28743562 38.55977231 26.85921355 42.47795354 26.8677063 46.24005127 C26.86595398 47.18322708 26.86420166 48.12640289 26.86239624 49.09815979 C26.85798227 52.22685568 26.86091413 55.35549539 26.86428833 58.48419189 C26.86361516 60.65130626 26.86264503 62.81842056 26.86138916 64.98553467 C26.8599128 69.53180662 26.86206476 74.07805894 26.86672974 78.62432861 C26.87242698 84.46227327 26.86914765 90.30017196 26.86315727 96.13811493 C26.85954999 100.61438343 26.86069102 105.09064097 26.86328506 109.56690979 C26.86395387 111.71997584 26.86312752 113.87304288 26.86080551 116.02610779 C26.85827628 119.031043 26.86212346 122.03590294 26.8677063 125.04083252 C26.86568207 125.93752151 26.86365784 126.83421051 26.86157227 127.7580719 C26.74416559 132.08538552 26.74416559 132.08538552 27.99710083 136.14044189 C39.63746914 136.21022872 51.27778694 136.26339806 62.91832256 136.29587841 C68.32462184 136.3114744 73.73077703 136.33260083 79.13699341 136.36676025 C84.36305452 136.39957133 89.58897781 136.41734043 94.81513405 136.42507362 C96.80003844 136.43057834 98.78493606 136.44132669 100.76978111 136.45763206 C120.58658045 137.16241304 120.58658045 137.16241304 137.99710083 129.14044189 C144.51698858 122.46892884 147.08161605 114.50219437 147.15823364 105.26519775 C147.16784119 104.32329086 147.17744873 103.38138397 147.18734741 102.41093445 C147.19159729 101.40257034 147.19584717 100.39420624 147.20022583 99.35528564 C147.2059259 98.30321426 147.21162598 97.25114288 147.21749878 96.16719055 C147.22693452 93.94059245 147.23347709 91.71398047 147.23733521 89.48736572 C147.24699667 86.11430794 147.27801601 82.7418713 147.30960083 79.36895752 C147.31613609 77.19773715 147.3213845 75.02651245 147.32522583 72.85528564 C147.34374603 71.36399391 147.34374603 71.36399391 147.36264038 69.84257507 C147.33268548 60.22086976 146.10155064 50.34345377 139.72756958 42.75762939 C132.33367904 35.84776329 122.12514975 34.8316489 112.45999146 34.91339111 C111.54198761 34.91309906 110.62398376 34.91280701 109.67816162 34.9125061 C106.66979231 34.91388988 103.66167642 34.92940601 100.65335083 34.94512939 C98.55728287 34.94886291 96.46121316 34.95170828 94.36514282 34.95370483 C88.86769735 34.96131461 83.37035877 34.98094021 77.87295532 35.00311279 C72.2554977 35.02362855 66.63802268 35.03271878 61.02053833 35.04278564 C50.01267905 35.06418868 39.00489886 35.09829242 27.99710083 35.14044189 Z " fill="#575759" transform="translate(1075.0028991699219,34.85955810546875)"/>
<path d="M0 0 C1.08655884 -0.00287018 1.08655884 -0.00287018 2.19506836 -0.00579834 C3.71435904 -0.00714886 5.23366171 -0.00353239 6.75292969 0.00488281 C9.05690839 0.01559899 11.36010758 0.00494907 13.6640625 -0.0078125 C15.15104336 -0.0064907 16.63802374 -0.00392789 18.125 0 C18.80232178 -0.00404846 19.47964355 -0.00809692 20.17749023 -0.01226807 C28.27285713 0.06573495 35.03740495 1.73535312 41.0625 7.265625 C43.26170248 9.70616083 45.19723547 12.29529047 47.125 14.953125 C48.25945704 16.47727724 49.39490745 18.0006905 50.53125 19.5234375 C51.11132812 20.3062207 51.69140625 21.08900391 52.2890625 21.89550781 C55.17516126 25.75264531 58.15314427 29.53694316 61.125 33.328125 C66.09525531 39.69461205 70.98253338 46.11686869 75.8137207 52.58935547 C79.17359477 57.08893728 82.57424424 61.55437782 86.00634766 65.99926758 C92.03007106 73.80566528 97.98914957 81.66155503 103.96142578 89.50732422 C106.01276673 92.20033491 108.06649905 94.89150242 110.12109375 97.58203125 C110.78367187 98.45053711 111.44625 99.31904297 112.12890625 100.21386719 C113.45380129 101.94906485 114.78060882 103.68280402 116.109375 105.41503906 C119.53756223 109.8963627 122.90359221 114.41056062 126.19140625 118.99609375 C126.86228271 119.92156006 127.53315918 120.84702637 128.22436523 121.80053711 C129.5025945 123.5683754 130.76722196 125.34615469 132.01586914 127.13500977 C132.59071045 127.92576904 133.16555176 128.71652832 133.7578125 129.53125 C134.25297363 130.23024414 134.74813477 130.92923828 135.25830078 131.64941406 C137.69598964 133.83310828 139.87780374 133.82553242 143.0625 134.265625 C143.05973462 133.59325145 143.05696924 132.9208779 143.05412006 132.22812939 C142.98790924 115.87884784 142.93824337 99.52960869 142.90706348 83.18022442 C142.89158491 75.27382789 142.87047659 67.36752078 142.83618164 59.46118164 C142.80630946 52.5711897 142.7869322 45.68126251 142.78023452 38.79120761 C142.77631852 35.14188392 142.76709511 31.49274547 142.74530983 27.84348106 C142.721205 23.77276719 142.72052859 19.70237676 142.72192383 15.6315918 C142.711138 14.41743088 142.70035217 13.20326996 142.6892395 11.95231628 C142.69336349 10.84593811 142.69748749 9.73955994 142.70173645 8.59965515 C142.69897107 7.63638148 142.69620569 6.67310781 142.69335651 5.68064404 C143.0625 3.265625 143.0625 3.265625 144.39560986 1.45650959 C147.06585478 -0.45120673 149.54556504 -0.12381689 152.77734375 -0.1328125 C153.42949356 -0.13568268 154.08164337 -0.13855286 154.7535553 -0.14151001 C156.13120391 -0.14354894 157.50888158 -0.13803086 158.88647461 -0.12548828 C160.9894327 -0.10945556 163.09046165 -0.1253267 165.19335938 -0.14453125 C166.53385839 -0.14254828 167.87435621 -0.13870348 169.21484375 -0.1328125 C170.43163818 -0.12942871 171.64843262 -0.12604492 172.90209961 -0.12255859 C176.41977086 0.30950763 177.59410152 0.77862571 180.0625 3.265625 C180.56307125 5.93382359 180.56307125 5.93382359 180.56370544 9.2157135 C180.57353958 10.45909485 180.58337372 11.7024762 180.59350586 12.98353577 C180.58413317 14.36410795 180.57435383 15.74467742 180.56420898 17.12524414 C180.56799166 18.57742842 180.57349128 20.02960911 180.58058167 21.48178101 C180.59456923 25.43064871 180.5833398 29.37908222 180.56687045 33.32792592 C180.55302495 37.46458739 180.55948016 41.6012235 180.56300354 45.73789978 C180.56570818 52.69276927 180.55221558 59.64746645 180.52905273 66.60229492 C180.50251448 74.62577133 180.50067162 82.64895829 180.5124411 90.67246348 C180.52325471 98.40119609 180.51699906 106.12982472 180.50288582 113.85854912 C180.49714961 117.14100053 180.49719018 120.42337525 180.50195122 123.70582771 C180.50675459 127.58254702 180.49648163 131.45895336 180.47499657 135.33561325 C180.46947124 136.75206764 180.46892388 138.16855237 180.47394943 139.58500862 C180.50246004 148.78015118 180.10952642 157.15097351 175.3125 165.203125 C169.76056613 170.29239772 163.88039357 170.72447519 156.69140625 170.69921875 C155.81024643 170.7044606 154.92908661 170.70970245 154.02122498 170.71510315 C152.16642302 170.72149728 150.31158038 170.72022033 148.45678711 170.71166992 C145.63646457 170.70315959 142.81816985 170.73195748 139.99804688 170.76367188 C138.1875006 170.76528428 136.37695078 170.76470561 134.56640625 170.76171875 C133.73283096 170.77295273 132.89925568 170.78418671 132.04042053 170.79576111 C125.23886829 170.71577012 120.29250339 168.80502965 114.94775391 164.60302734 C111.13793175 160.56274794 107.698275 156.38474719 104.4375 151.890625 C103.39272609 150.47467051 102.34712495 149.05932611 101.30078125 147.64453125 C100.76791504 146.92152832 100.23504883 146.19852539 99.68603516 145.45361328 C97.03657683 141.88301997 94.33154642 138.35552934 91.625 134.828125 C91.08536621 134.12381348 90.54573242 133.41950195 89.98974609 132.69384766 C88.89462152 131.26461728 87.7992437 129.83558092 86.70361328 128.40673828 C83.98674572 124.86211934 81.27486299 121.31369123 78.5625 117.765625 C77.47919084 116.34893985 76.3958575 114.93227319 75.3125 113.515625 C42.8125 71.015625 42.8125 71.015625 41.18530273 68.88745117 C40.10968076 67.48106776 39.03367609 66.07497695 37.95727539 64.66918945 C35.12763372 60.97258643 32.30623046 57.27005183 29.49609375 53.55859375 C28.61824219 52.40230469 28.61824219 52.40230469 27.72265625 51.22265625 C26.60430085 49.74926738 25.48827549 48.27410594 24.375 46.796875 C19.44601663 39.824332 19.44601663 39.824332 12.0625 36.265625 C12.06434359 36.93192303 12.06618717 37.59822105 12.06808662 38.28470993 C12.11224317 54.49248492 12.14534561 70.70024088 12.16612434 86.90806198 C12.1764397 94.74602162 12.19050498 102.58394112 12.21337891 110.421875 C12.23330485 117.25291255 12.24621455 124.08392104 12.25067699 130.91498685 C12.25328572 134.53243943 12.25942274 138.14980886 12.27396011 141.7672348 C12.29005199 145.80417073 12.2904802 149.8409618 12.28955078 153.87792969 C12.29674133 155.07914459 12.30393188 156.2803595 12.31134033 157.51797485 C12.308591 158.61731354 12.30584167 159.71665222 12.30300903 160.8493042 C12.30485262 161.80428173 12.30669621 162.75925926 12.30859566 163.74317551 C12.05208537 166.37237368 11.39989693 168.0096555 10.0625 170.265625 C5.39942986 170.31499779 0.73651127 170.35133127 -3.92675781 170.37548828 C-5.51369883 170.38555688 -7.10062125 170.39921267 -8.6875 170.41650391 C-10.96619247 170.44071501 -13.24464006 170.45209922 -15.5234375 170.4609375 C-16.23494965 170.47126007 -16.94646179 170.48158264 -17.67953491 170.49221802 C-19.43381665 170.49261922 -21.18746709 170.38764709 -22.9375 170.265625 C-25.66109847 167.54202653 -25.19118181 166.08396006 -25.19819641 162.27047729 C-25.20528122 160.99192368 -25.21236603 159.71337006 -25.21966553 158.39607239 C-25.21737142 156.9709164 -25.21486168 155.54576074 -25.2121582 154.12060547 C-25.21650354 152.62591801 -25.22168609 151.13123279 -25.22764587 149.6365509 C-25.24107232 145.56805516 -25.24161008 141.49965211 -25.23908257 137.43113852 C-25.23801445 134.03434089 -25.24289262 130.63756214 -25.247688 127.24076855 C-25.25879765 119.22234704 -25.25921365 111.20397236 -25.25317383 103.18554688 C-25.24714376 94.92065601 -25.25941702 86.6559358 -25.2807439 78.39107406 C-25.29838306 71.29371649 -25.30435726 64.1964131 -25.30110615 57.09903443 C-25.29929545 52.86107954 -25.30190736 48.62324614 -25.31582069 44.38531113 C-25.32843064 40.39455813 -25.32642514 36.40406965 -25.31340981 32.41332054 C-25.31105063 30.95247621 -25.31375501 29.49161311 -25.32203293 28.03079033 C-25.4116329 10.98213927 -25.4116329 10.98213927 -19.25 4.390625 C-13.24339782 0.53733304 -7.00361421 -0.04186174 0 0 Z " fill="#575759" transform="translate(822.9375,34.734375)"/>
<path d="M0 0 C2.63080933 -0.00202579 5.26161811 -0.00494141 7.89242554 -0.00869751 C13.35671644 -0.01409934 18.82088417 -0.00709775 24.28515625 0.00732422 C30.59595877 0.02378827 36.90647251 0.01824156 43.21726859 0.001845 C49.32717006 -0.01338947 55.43694341 -0.01180853 61.54685593 -0.0030098 C64.13450537 -0.00100799 66.72216221 -0.00346634 69.30980301 -0.01044846 C72.90416669 -0.01803364 76.49796393 -0.00650635 80.09228516 0.01025391 C81.16124527 0.00418121 82.23020538 -0.00189148 83.33155823 -0.00814819 C84.30661819 0.00031128 85.28167816 0.00877075 86.2862854 0.01748657 C87.13379175 0.01861765 87.9812981 0.01974873 88.85448647 0.02091408 C91.53378716 0.48726797 92.41948155 1.23115501 94.0234375 3.3984375 C94.58933218 7.5371621 94.49614402 11.67579686 94.46948242 15.85009766 C94.46096447 17.89197321 94.48974584 19.93105665 94.52148438 21.97265625 C94.52051758 23.90044922 94.52051758 23.90044922 94.51953125 25.8671875 C94.52138428 27.04732422 94.5232373 28.22746094 94.52514648 29.44335938 C94.0234375 32.3984375 94.0234375 32.3984375 92.30308819 34.05947113 C89.63899107 35.62424439 88.11885136 35.77446071 85.0473175 35.77697754 C83.54403145 35.78928154 83.54403145 35.78928154 82.01037598 35.80183411 C80.91680786 35.79568588 79.82323975 35.78953766 78.6965332 35.78320312 C77.53997726 35.7885759 76.38342133 35.79394867 75.19181824 35.79948425 C72.67859379 35.80927269 70.16533551 35.81220321 67.65209389 35.80912781 C63.6711983 35.80465602 59.6905922 35.81820676 55.70976257 35.83752441 C47.2518364 35.87537472 38.79393534 35.88816658 30.3359375 35.8984375 C21.22105282 35.90952259 12.10630122 35.92502308 2.99150723 35.96915007 C-1.59362267 35.99036054 -6.17843234 35.98866236 -10.76359558 35.98303223 C-13.17662909 35.99237668 -15.58965959 36.00254646 -18.00268555 36.01367188 C-19.08613251 36.00752365 -20.16957947 36.00137543 -21.28585815 35.99504089 C-28.90764526 36.05655778 -35.28327904 37.15035192 -41.8515625 41.1484375 C-47.48876533 47.1172405 -48.0280591 54.89988558 -48.5390625 62.7109375 C-48.62285156 63.96519531 -48.70664063 65.21945313 -48.79296875 66.51171875 C-48.85355469 67.46433594 -48.91414063 68.41695313 -48.9765625 69.3984375 C-48.26903461 69.39475033 -47.56150673 69.39106316 -46.8325386 69.38726425 C-29.6233701 69.29895856 -12.41425908 69.23275005 4.79508591 69.19118881 C13.11737958 69.1705563 21.43952209 69.14242266 29.76171875 69.09667969 C37.01465875 69.05683286 44.26748929 69.0310097 51.52053571 69.02208352 C55.36165493 69.01686506 59.20246099 69.00458591 63.04347992 68.97551727 C66.65830587 68.94838191 70.27268945 68.93998851 73.88760757 68.94600677 C75.84782805 68.94438036 77.80800026 68.92284766 79.76809692 68.90075684 C80.93474884 68.90625549 82.10140076 68.91175415 83.30340576 68.91741943 C84.31737804 68.91373226 85.33135033 68.91004509 86.37604904 68.90624619 C89.74646224 69.53285921 90.92821632 70.73844085 93.0234375 73.3984375 C93.54101562 75.90039062 93.54101562 75.90039062 93.5546875 78.6796875 C93.56242187 80.18982422 93.56242187 80.18982422 93.5703125 81.73046875 C93.55484375 82.77589844 93.539375 83.82132812 93.5234375 84.8984375 C93.54664063 86.46658203 93.54664063 86.46658203 93.5703125 88.06640625 C93.56515625 89.07316406 93.56 90.07992187 93.5546875 91.1171875 C93.55017578 92.03435547 93.54566406 92.95152344 93.54101562 93.89648438 C92.85317294 97.22148994 91.6500597 98.28181158 89.0234375 100.3984375 C86.37604904 100.89062881 86.37604904 100.89062881 83.30340576 100.87945557 C82.13675385 100.88495422 80.97010193 100.89045288 79.76809692 100.89611816 C78.49207611 100.88173706 77.2160553 100.86735596 75.90136719 100.85253906 C74.5411889 100.85141051 73.18100817 100.8520446 71.8208313 100.85430908 C68.13088959 100.85545688 64.44146785 100.83193763 60.751647 100.80401325 C56.89461846 100.77901017 53.03757803 100.77665847 49.18048096 100.77191162 C41.87772673 100.75947859 34.57521199 100.72665269 27.27256322 100.68651366 C18.95827314 100.64180603 10.64397163 100.61981147 2.32959127 100.59973192 C-14.77259852 100.55792023 -31.87455519 100.48756196 -48.9765625 100.3984375 C-48.83819399 102.94826377 -48.69414894 105.49756029 -48.546875 108.046875 C-48.50860596 108.76286865 -48.47033691 109.4788623 -48.4309082 110.21655273 C-47.98914248 117.70941411 -47.42559991 124.60616003 -41.6015625 129.8984375 C-33.67444681 135.79807287 -25.01398621 135.54896436 -15.51098633 135.57202148 C-14.36400772 135.5787085 -13.21702911 135.58539551 -12.03529358 135.59228516 C-9.55045942 135.6063094 -7.06561258 135.61821175 -4.58075905 135.62823296 C-0.65182972 135.64466409 3.27700476 135.66789997 7.20588684 135.69313049 C18.37443041 135.76418926 29.54301732 135.82422335 40.71166992 135.87524414 C47.54616974 135.90654756 54.38055231 135.94822092 61.2149601 135.99543953 C63.82212637 136.01148756 66.42931837 136.0237961 69.03652 136.03234673 C72.6731446 136.04445171 76.30950393 136.06857855 79.94604492 136.09545898 C81.02921997 136.09604813 82.11239502 136.09663727 83.22839355 136.09724426 C84.21671677 136.10696259 85.20503998 136.11668091 86.22331238 136.12669373 C87.08292666 136.13092566 87.94254095 136.1351576 88.82820415 136.13951778 C91.0234375 136.3984375 91.0234375 136.3984375 94.0234375 138.3984375 C94.39575195 141.34765625 94.39575195 141.34765625 94.38671875 145.0859375 C94.38746651 146.07339966 94.38746651 146.07339966 94.38822937 147.08081055 C94.38588854 148.47284971 94.3761593 149.86489307 94.35961914 151.25683594 C94.33602684 153.390358 94.3390571 155.52263069 94.34570312 157.65625 C94.30253061 168.11934439 94.30253061 168.11934439 92.0234375 170.3984375 C89.82021809 170.65291309 89.82021809 170.65291309 87.02449036 170.65913391 C85.96640671 170.66621872 84.90832306 170.67330353 83.81817627 170.68060303 C82.06896881 170.6768869 82.06896881 170.6768869 80.28442383 170.6730957 C78.44744179 170.6807621 78.44744179 170.6807621 76.573349 170.68858337 C73.2047182 170.70013339 69.83633289 170.70254665 66.46769929 170.70002007 C63.64815612 170.69895041 60.8286356 170.7038349 58.00909728 170.7086255 C51.34239209 170.71973908 44.67574319 170.72015125 38.0090332 170.71411133 C31.16322437 170.70810332 24.31762273 170.72029682 17.47184926 170.7416814 C11.57776715 170.75940696 5.68375024 170.76528066 -0.21035749 170.76204365 C-3.72251679 170.76024401 -7.23452917 170.76273091 -10.74666405 170.77675819 C-55.8962633 170.94143388 -55.8962633 170.94143388 -72.62109375 154.8125 C-82.42868098 144.2352034 -86.06017984 129.33009169 -86.13769531 115.23828125 C-86.14514267 114.20268318 -86.14514267 114.20268318 -86.15274048 113.14616394 C-86.16726777 110.87607803 -86.17415079 108.60606215 -86.1796875 106.3359375 C-86.18251488 105.55353699 -86.18534225 104.77113647 -86.18825531 103.96502686 C-86.20321517 99.81864082 -86.21246292 95.67228924 -86.21679688 91.52587891 C-86.2222548 87.28092986 -86.2462349 83.0363059 -86.27476883 78.79145813 C-86.29356833 75.49508808 -86.29861007 72.19879335 -86.30013275 68.90237427 C-86.30312457 67.33975461 -86.3110327 65.77713514 -86.32431793 64.21456909 C-86.46378688 46.538929 -84.21016801 28.81843723 -71.359375 15.5859375 C-52.31484742 -1.89756323 -24.1700752 -0.0662902 0 0 Z " fill="#575759" transform="translate(1403.9765625,34.6015625)"/>
<path d="M0 0 C0.99515625 -0.020625 1.9903125 -0.04125 3.015625 -0.0625 C12.6937892 -0.11303872 20.88771795 1.30298045 28.01953125 8.20703125 C35.04458026 15.94197995 39.53528975 25.07749953 44.29296875 34.2890625 C46.61651303 38.78026661 49.03029222 43.21279082 51.5 47.625 C52.33338624 49.11585584 53.16671673 50.60674285 54 52.09765625 C54.45117188 52.90477051 54.90234375 53.71188477 55.3671875 54.54345703 C58.42927125 60.03993703 61.46241793 65.55245477 64.5 71.0625 C65.18959449 72.31300008 65.87921054 73.56348827 66.56884766 74.81396484 C67.9721169 77.35849963 69.37525963 79.90310412 70.77832031 82.44775391 C73.81195254 87.9494408 76.84722312 93.45022368 79.88241577 98.9510498 C80.87583921 100.75152098 81.86920446 102.55202426 82.86254883 104.35253906 C86.60587327 111.13759065 90.3495107 117.92246927 94.0941925 124.70677185 C95.79496025 127.78827778 97.49506083 130.87014783 99.19360352 133.95288086 C102.21378463 139.43346471 105.23988746 144.91047726 108.2890625 150.375 C109.06189575 151.76513306 109.06189575 151.76513306 109.8503418 153.18334961 C110.79333834 154.8789799 111.73985724 156.57265838 112.69067383 158.26391602 C113.1008374 159.00311279 113.51100098 159.74230957 113.93359375 160.50390625 C114.46424438 161.45245483 114.46424438 161.45245483 115.00561523 162.42016602 C115.93266822 164.37137695 116.51866735 166.11888312 116.875 168.25 C116.545 168.91 116.215 169.57 115.875 170.25 C110.53654426 170.37368107 105.19892376 170.46437609 99.859375 170.5246582 C98.04347201 170.549789 96.22767004 170.58389961 94.41210938 170.62719727 C91.80052777 170.68791511 89.19028406 170.71622281 86.578125 170.73828125 C85.76756653 170.76408768 84.95700806 170.7898941 84.12188721 170.81648254 C81.81738281 170.81762695 81.81738281 170.81762695 77.875 170.25 C69.94577376 160.3384672 64.86888522 148.43858575 58.875 137.25 C21.255 136.92 -16.365 136.59 -55.125 136.25 C-55.785 138.23 -56.445 140.21 -57.125 142.25 C-57.97511804 144.00076413 -58.86958121 145.73061631 -59.8046875 147.4375 C-60.32160156 148.38367188 -60.83851563 149.32984375 -61.37109375 150.3046875 C-61.90863281 151.27664062 -62.44617188 152.24859375 -63 153.25 C-63.52980469 154.22195312 -64.05960938 155.19390625 -64.60546875 156.1953125 C-66.0885309 158.89647284 -67.56918487 161.59000977 -69.125 164.25 C-69.6617334 165.33490723 -70.1984668 166.41981445 -70.75146484 167.53759766 C-73.30837133 170.45955106 -73.55567471 170.65751964 -77.15917969 170.93115234 C-78.78872029 170.93020618 -80.41846055 170.89651693 -82.046875 170.8359375 C-82.90686096 170.82744781 -83.76684692 170.81895813 -84.65289307 170.81021118 C-87.39487962 170.77667054 -90.13390538 170.7013951 -92.875 170.625 C-94.73563455 170.59490102 -96.59631529 170.56752509 -98.45703125 170.54296875 C-103.01415852 170.4768776 -107.56907766 170.3733553 -112.125 170.25 C-112.97720941 167.34524067 -113.29853997 165.72793819 -112.25146484 162.84423828 C-111.78434082 162.01134277 -111.3172168 161.17844727 -110.8359375 160.3203125 C-110.31354492 159.37285156 -109.79115234 158.42539063 -109.25292969 157.44921875 C-108.38522949 155.92748047 -108.38522949 155.92748047 -107.5 154.375 C-106.90606445 153.30636719 -106.31212891 152.23773438 -105.70019531 151.13671875 C-103.85794023 147.83175401 -101.99527698 144.53917651 -100.125 141.25 C-99.5897168 140.30737305 -99.05443359 139.36474609 -98.50292969 138.39355469 C-94.10263744 130.64915179 -94.10263744 130.64915179 -92.28466797 127.46142578 C-87.17858498 118.4579168 -82.35091952 109.31402325 -77.52258301 100.15991211 C-72.52995176 90.70001474 -67.4032595 81.34012657 -62.08251953 72.05957031 C-57.76779367 64.48973499 -53.67542852 56.81291601 -49.61123657 49.10690308 C-39.27694968 29.51310875 -39.27694968 29.51310875 -33.9375 20.1875 C-33.52870605 19.46336914 -33.11991211 18.73923828 -32.69873047 17.99316406 C-29.30813719 12.16106282 -25.38300343 5.69179099 -19 2.875 C-18.35804688 2.57851563 -17.71609375 2.28203125 -17.0546875 1.9765625 C-11.42718375 -0.14229519 -5.94907418 0.03012189 0 0 Z M-0.125 35.25 C-4.7431649 42.28283163 -8.60993838 49.68660069 -12.51092529 57.13018799 C-14.5046213 60.93400318 -16.5080012 64.73270663 -18.51171875 68.53125 C-18.90752136 69.28193756 -19.30332397 70.03262512 -19.71112061 70.80606079 C-23.54178917 78.0604949 -27.45788731 85.26624627 -31.42016602 92.44970703 C-31.85643311 93.24231934 -32.2927002 94.03493164 -32.7421875 94.8515625 C-33.10940918 95.51494629 -33.47663086 96.17833008 -33.85498047 96.86181641 C-35.67808329 100.29003475 -37.38854471 103.77708941 -39.125 107.25 C-12.065 107.25 14.995 107.25 42.875 107.25 C36.21107426 93.8948791 36.21107426 93.8948791 29.1875 80.75 C28.16105701 78.88173085 27.13503145 77.01323232 26.109375 75.14453125 C25.58408203 74.18885254 25.05878906 73.23317383 24.51757812 72.24853516 C21.09422295 65.99918196 17.71415565 59.72626607 14.32739258 53.45703125 C13.32122776 51.59665368 12.31013762 49.73892904 11.29345703 47.88427734 C10.35176787 46.13542605 9.44074263 44.3696962 8.56201172 42.58837891 C8.14838379 41.77159668 7.73475586 40.95481445 7.30859375 40.11328125 C6.95724365 39.39052002 6.60589355 38.66775879 6.24389648 37.9230957 C4.3729371 35.63636757 2.73752582 35.56521419 -0.125 35.25 Z " fill="#575759" transform="translate(632.125,34.75)"/>
<path d="M0 0 C1.19026524 -0.0083016 1.19026524 -0.0083016 2.40457624 -0.0167709 C5.06645734 -0.03039639 7.72740389 -0.01539837 10.38926697 -0.00050354 C12.29629922 -0.004286 14.20332874 -0.00978544 16.11035156 -0.01687622 C21.29208553 -0.03085663 26.47348842 -0.01964329 31.65520406 -0.00316501 C37.07237473 0.01066639 42.48952581 0.00422767 47.90670776 0.0007019 C57.00348763 -0.0020015 66.10013565 0.0114874 75.19688416 0.03465271 C85.72270392 0.06127122 96.2483033 0.06300748 106.77414519 0.05126435 C116.89012292 0.04049607 127.00602073 0.04666564 137.12199211 0.06081963 C141.43176087 0.06658688 145.74147128 0.06649096 150.05124092 0.06175423 C155.12297324 0.05699202 160.19446331 0.06705468 165.26614952 0.08870888 C167.13061328 0.09428696 168.99510027 0.09473273 170.85956573 0.08975601 C173.39842916 0.08382759 175.9365458 0.09626069 178.4753418 0.11352539 C179.21871876 0.10751535 179.96209573 0.1015053 180.72799927 0.09531313 C183.64620425 0.13157107 185.67869585 0.16332132 188.13010311 1.83500576 C189.8304362 4.54850033 189.58255293 7.08975546 189.60777283 10.25120544 C189.61301468 10.90572693 189.61825653 11.56024841 189.62365723 12.23460388 C189.63007171 13.61642541 189.62874773 14.99830157 189.620224 16.38011169 C189.61170657 18.49438068 189.64048639 20.60595299 189.67222595 22.71995544 C189.67383795 24.06370464 189.67326045 25.40745861 189.67027283 26.75120544 C189.67212585 27.97323669 189.67397888 29.19526794 189.67588806 30.45433044 C189.17417908 33.50120544 189.17417908 33.50120544 187.61297607 35.17034912 C184.30608558 36.97492578 181.32103235 36.89786884 177.65171814 36.84178162 C176.9001091 36.8422197 176.14850006 36.84265778 175.37411499 36.84310913 C172.8957449 36.84102311 170.41805564 36.81770148 167.93980408 36.79417419 C166.21916575 36.78857756 164.49852263 36.78430778 162.77787781 36.78131104 C158.25353247 36.76986752 153.72947696 36.74040464 149.20524597 36.7071991 C144.58685731 36.67648755 139.96842172 36.66280338 135.34996033 36.64768982 C126.29123938 36.61553443 117.23273335 36.56434406 108.17417908 36.50120544 C108.17694446 37.16142795 108.17970984 37.82165045 108.18255901 38.50187969 C108.24881819 54.56812767 108.2984593 70.6343281 108.32961559 86.70067883 C108.3450831 94.4702565 108.36617035 102.23974296 108.40049744 110.00926208 C108.43040341 116.78134593 108.44975493 123.55336371 108.45644456 130.32551175 C108.46035482 133.91118473 108.46954185 137.49666872 108.49136925 141.08228111 C108.51554125 145.08553316 108.51614831 149.08845683 108.51475525 153.09178162 C108.52554108 154.28005051 108.5363269 155.4683194 108.54743958 156.69259644 C108.54331558 157.78489563 108.53919159 158.87719482 108.53494263 160.00259399 C108.53770801 160.94927539 108.54047338 161.89595678 108.54332256 162.87132549 C108.09427401 166.07047118 107.13707189 167.94724951 105.17417908 170.50120544 C102.4816494 170.98465168 100.4205581 171.13478908 97.73277283 171.05979919 C97.00929153 171.0574678 96.28581024 171.05513641 95.54040527 171.05273438 C94.01301766 171.04300081 92.48566597 171.02122187 90.95860291 170.98826599 C88.61650904 170.93880744 86.27651383 170.92678392 83.9339447 170.92112732 C82.45019832 170.90704293 80.96647022 170.89083908 79.48277283 170.87229919 C78.78067184 170.86693649 78.07857086 170.86157379 77.35519409 170.85604858 C72.40748751 170.73451388 72.40748751 170.73451388 70.17417908 168.50120544 C69.92808342 166.19361687 69.92808342 166.19361687 69.93367004 163.24946594 C69.93092072 162.13604828 69.92817139 161.02263062 69.92533875 159.87547302 C69.93612457 158.03481262 69.93612457 158.03481262 69.9471283 156.15696716 C69.94683624 154.8692038 69.94654419 153.58144043 69.94624329 152.25465393 C69.94566808 148.71763963 69.95744935 145.18076024 69.9713912 141.64377737 C69.98387075 137.94954196 69.98506686 134.25530365 69.98744202 130.56105042 C69.99366497 123.56289197 70.01008677 116.5647958 70.030141 109.56666481 C70.05247468 101.60063607 70.06348705 93.6346044 70.07353187 85.66855216 C70.09445233 69.27940009 70.12964408 52.89031071 70.17417908 36.50120544 C69.21839966 36.50564667 68.26262024 36.51008789 67.27787781 36.5146637 C58.27285847 36.5551979 49.26785764 36.58518414 40.26276779 36.60482979 C35.6331019 36.61526931 31.00350963 36.62943163 26.37388611 36.65208435 C21.90648423 36.67380665 17.43915319 36.6857728 12.97170258 36.69095993 C11.26685216 36.69465678 9.56200564 36.70187575 7.85718536 36.71266556 C5.47025152 36.72717236 3.08361082 36.72918373 0.69664001 36.72825623 C-0.00898575 36.73544678 -0.71461151 36.74263733 -1.44161987 36.75004578 C-5.04913141 36.73486609 -7.81675113 36.60031104 -10.82582092 34.50120544 C-13.10961275 29.93362179 -12.10104697 23.64079421 -12.13832092 18.62620544 C-12.16732483 17.33327576 -12.19632874 16.04034607 -12.22621155 14.70823669 C-12.23459045 13.46686951 -12.24296936 12.22550232 -12.25160217 10.94651794 C-12.26618469 9.80714783 -12.28076721 8.66777771 -12.29579163 7.49388123 C-11.1831289 0.4086762 -6.25330629 -0.08104075 0 0 Z " fill="#575759" transform="translate(1556.8258209228516,34.49879455566406)"/>
<path d="M0 0 C0.97610229 -0.00430527 0.97610229 -0.00430527 1.97192383 -0.00869751 C3.34359613 -0.01073306 4.71529779 -0.00523873 6.08691406 0.00732422 C8.18100165 0.02338765 10.27315961 0.00746093 12.3671875 -0.01171875 C13.70312924 -0.00973622 15.03906978 -0.00589235 16.375 0 C18.19064453 0.00507568 18.19064453 0.00507568 20.04296875 0.01025391 C23.51854112 0.4393036 24.69357065 1.01263274 27.1875 3.3984375 C27.68972206 5.46035194 27.68972206 5.46035194 27.69302368 7.87466431 C27.70404617 8.79133881 27.71506866 9.70801331 27.72642517 10.65246582 C27.71825272 11.65612183 27.71008026 12.65977783 27.70166016 13.69384766 C27.70878525 14.75272186 27.71591034 15.81159607 27.72325134 16.90255737 C27.74259929 20.41439235 27.7342375 23.92562903 27.7265625 27.4375 C27.73646561 29.8778878 27.74840537 32.31826812 27.76229858 34.75863647 C27.7947411 41.19634154 27.80505856 47.63387651 27.80914307 54.07165527 C27.81787847 64.35496785 27.85350052 74.63813987 27.9013176 84.92133713 C27.9138756 88.50910444 27.91314627 92.09669398 27.91104126 95.68447876 C27.917626 97.89854059 27.92463313 100.11260122 27.93212891 102.32666016 C27.92594292 103.81392609 27.92594292 103.81392609 27.91963196 105.33123779 C27.96859965 113.82413224 28.54993969 121.6646849 34.1875 128.3984375 C41.69130337 134.40148019 48.99932716 134.69444178 58.21582031 134.68554688 C59.30442352 134.69237991 60.39302673 134.69921295 61.51461792 134.70625305 C63.8690104 134.71980335 66.22343199 134.72888078 68.57785797 134.73396301 C72.30109373 134.7422666 76.02408595 134.7627828 79.74725342 134.78649902 C88.31617176 134.83874837 96.88514001 134.87302884 105.45414734 134.90625763 C113.94651863 134.93938552 122.43878376 134.98017402 130.93105316 135.03437805 C134.60438105 135.05448907 138.27761723 135.06277272 141.95098877 135.07067871 C144.19291523 135.08364522 146.43483859 135.09716466 148.67675781 135.11132812 C150.21500717 135.10985527 150.21500717 135.10985527 151.78433228 135.10835266 C152.7207254 135.11662582 153.65711853 135.12489899 154.62188721 135.13342285 C155.43595661 135.13635597 156.25002602 135.13928909 157.08876419 135.1423111 C159.1875 135.3984375 159.1875 135.3984375 162.1875 137.3984375 C162.55981445 140.43945312 162.55981445 140.43945312 162.55078125 144.3046875 C162.55152901 145.32544373 162.55152901 145.32544373 162.55229187 146.36682129 C162.54995082 147.8059379 162.54022029 149.24505855 162.52368164 150.68408203 C162.50009002 152.89001987 162.50311947 155.09474936 162.50976562 157.30078125 C162.4665825 168.119355 162.4665825 168.119355 160.1875 170.3984375 C158.11201286 170.65291309 158.11201286 170.65291309 155.49899292 170.65913391 C154.50966766 170.66621872 153.52034241 170.67330353 152.5010376 170.68060303 C151.41127625 170.67812561 150.32151489 170.67564819 149.19873047 170.6730957 C147.48120071 170.6807621 147.48120071 170.6807621 145.72897339 170.68858337 C141.92082568 170.70254743 138.11285787 170.70151576 134.3046875 170.69921875 C132.3251559 170.70212291 130.34562422 170.70503169 128.36609375 170.7086255 C122.12604286 170.71973972 115.88605211 170.72015145 109.64599609 170.71411133 C103.24440655 170.70810871 96.84303887 170.72028265 90.44148719 170.7416814 C84.926154 170.75942876 79.41089048 170.76527715 73.89552987 170.76204365 C70.61080385 170.76024677 67.32626791 170.7640528 64.04156113 170.77675819 C18.99258974 170.92945054 18.99258974 170.92945054 3.1875 155.3984375 C-12.55268699 137.65495398 -11.1351548 113.36378698 -11.1484375 91.19921875 C-11.15487263 88.67050604 -11.16160152 86.14179407 -11.16860962 83.61308289 C-11.18052336 78.34238481 -11.18438216 73.0717337 -11.18310547 67.80102539 C-11.18189665 61.71128752 -11.20317202 55.62189976 -11.2345928 49.5322507 C-11.26385508 43.65038326 -11.27108332 37.76862368 -11.26988602 31.8866787 C-11.27224949 29.39112082 -11.28111471 26.89556046 -11.29655075 24.40004921 C-11.31605054 20.92695943 -11.31043896 17.45479269 -11.29833984 13.98168945 C-11.30957886 12.94848572 -11.32081787 11.91528198 -11.33239746 10.85076904 C-11.32400848 9.90766373 -11.31561951 8.96455841 -11.30697632 7.99287415 C-11.30806585 7.17314778 -11.30915539 6.35342142 -11.31027794 5.50885487 C-10.8125 3.3984375 -10.8125 3.3984375 -8.97812843 1.63554668 C-5.92646615 -0.10770686 -3.4988313 0.00978108 0 0 Z " fill="#575759" transform="translate(317.8125,34.6015625)"/>
<path d="M0 0 C486.09 0 972.18 0 1473 0 C1473 1.65 1473 3.3 1473 5 C986.91 5 500.82 5 0 5 C0 3.35 0 1.7 0 0 Z " fill="#575759" transform="translate(314,254)"/>
<path d="M0 0 C23.43 0 46.86 0 71 0 C71 32.67 71 65.34 71 99 C47.57 99 24.14 99 0 99 C0 66.33 0 33.66 0 0 Z " fill="#575759" transform="translate(0,237)"/>
<path d="M0 0 C1.13771792 2.21475756 2.0613412 4.3077716 2.9375 6.625 C3.19619873 7.29144531 3.45489746 7.95789063 3.72143555 8.64453125 C15.18926637 39.00704639 14.2038045 73.3843055 1 103 C-0.53059999 105.83340833 -2.13600943 108.3684839 -4 111 C-9.6875 107.75 -9.6875 107.75 -11.57104492 106.67211914 C-15.28482312 104.54771021 -19.00277504 102.43103881 -22.7265625 100.32421875 C-33.55383802 94.18583757 -44.27342413 87.8881623 -54.92895508 81.45605469 C-59.71063789 78.57004646 -64.49659761 75.69648846 -69.328125 72.89453125 C-70.12508789 72.43191895 -70.92205078 71.96930664 -71.74316406 71.49267578 C-73.20604173 70.6466628 -74.67139841 69.80491629 -76.13964844 68.96826172 C-80.89060685 66.21878629 -80.89060685 66.21878629 -82 64 C-81.67 63.01 -81.34 62.02 -81 61 C-79.54556976 56.31241066 -80.01140269 51.75961767 -81 47 C-81.36609375 46.32324219 -81.7321875 45.64648438 -82.109375 44.94921875 C-83 43 -83 43 -82.85372925 41.05154419 C-81.63582391 38.12487085 -80.05278639 37.60788469 -77.23095703 36.22607422 C-76.2112381 35.71809296 -75.19151917 35.21011169 -74.14089966 34.68673706 C-73.0244809 34.14816071 -71.90806213 33.60958435 -70.7578125 33.0546875 C-68.99571773 32.18302812 -67.23362375 31.31136715 -65.47157097 30.43962288 C-62.98738309 29.21514967 -60.49687888 28.00381006 -58.00646973 26.79205322 C-53.73364778 24.70942331 -49.47184652 22.60429527 -45.20794678 20.503479 C-42.83097866 19.3324646 -40.45325555 18.16298143 -38.07476807 16.99505615 C-29.55664337 12.8024752 -21.12776602 8.46472017 -12.75341797 3.99267578 C-12.11257263 3.65367249 -11.47172729 3.31466919 -10.8114624 2.96539307 C-9.0922021 2.0491378 -7.385759 1.10895037 -5.68017578 0.16748047 C-3 -1 -3 -1 0 0 Z " fill="#575759" transform="translate(258,63)"/>
<path d="M0 0 C23.43 0 46.86 0 71 0 C71 29.37 71 58.74 71 89 C47.57 89 24.14 89 0 89 C0 59.63 0 30.26 0 0 Z " fill="#575759" transform="translate(0,142)"/>
<path d="M0 0 C17.49 0 34.98 0 53 0 C56.51129488 12.28953207 60.01557587 24.56253269 63.3046875 36.91015625 C63.67723734 38.30546058 64.04980658 39.70075973 64.4223938 41.09605408 C65.18828172 43.96641249 65.95254281 46.83719836 66.71582031 49.70825195 C67.69287775 53.3820665 68.67640533 57.05411829 69.66129875 60.72583866 C70.42642016 63.58251476 71.18710145 66.44035921 71.94653702 69.29855156 C72.30772744 70.65494546 72.67054556 72.01090706 73.03506088 73.36641121 C73.5396155 75.244405 74.03730231 77.1242399 74.53466797 79.00415039 C74.81857391 80.06888077 75.10247986 81.13361115 75.39498901 82.23060608 C76 85 76 85 76 89 C50.92 89 25.84 89 0 89 C0 59.63 0 30.26 0 0 Z " fill="#63A695" transform="translate(79,142)"/>
<path d="M0 0 C21.40919112 -0.16043524 21.40919112 -0.16043524 30.66015625 -0.1953125 C36.92901453 -0.21906041 43.19763526 -0.24689843 49.46630859 -0.30175781 C54.53031739 -0.34578842 59.59407083 -0.36925541 64.65825653 -0.37950897 C66.57319906 -0.38679922 68.48813046 -0.40102873 70.40296173 -0.42292023 C90.82109168 -0.64668906 110.71814206 2.40202458 129 12 C127.39910601 16.64259258 124.91214203 20.4327789 122.2109375 24.48828125 C121.74765045 25.19147995 121.2843634 25.89467865 120.80703735 26.6191864 C119.33389106 28.85309753 117.85455334 31.08282851 116.375 33.3125 C115.37198372 34.83110809 114.36937498 36.34998544 113.3671875 37.86914062 C110.91616737 41.58256212 108.4595881 45.29224853 106 49 C105.40832031 48.86722656 104.81664062 48.73445313 104.20703125 48.59765625 C103.41683594 48.42105469 102.62664062 48.24445312 101.8125 48.0625 C101.03519531 47.88847656 100.25789063 47.71445312 99.45703125 47.53515625 C98.64621094 47.35855469 97.83539063 47.18195312 97 47 C96.26163406 46.81732071 95.52326813 46.63464142 94.76252747 46.44642639 C90.8354793 45.81181263 86.95935275 45.8218208 82.98706055 45.79467773 C82.08900192 45.78477814 81.1909433 45.77487854 80.26567078 45.76467896 C77.30604665 45.73316637 74.34640648 45.70834708 71.38671875 45.68359375 C69.33119802 45.66301538 67.27568143 45.64201867 65.22016907 45.62062073 C59.81647099 45.56549129 54.4127353 45.5160418 49.00897217 45.46777344 C42.52191819 45.40864742 36.03493279 45.34246974 29.54793549 45.27747345 C19.69866562 45.17957881 9.84935128 45.09064412 0 45 C0 30.15 0 15.3 0 0 Z " fill="#575759" transform="translate(79,0)"/>
<path d="M0 0 C23.43 0 46.86 0 71 0 C71 14.85 71 29.7 71 45 C47.57 45 24.14 45 0 45 C0 30.15 0 15.3 0 0 Z " fill="#575759" transform="translate(0,0)"/>
<path d="M0 0 C16.50938341 6.37815717 29.88660101 22.24987116 39 37 C39 37.66 39 38.32 39 39 C37.87694458 39.5576001 37.87694458 39.5576001 36.73120117 40.12646484 C19.21633096 48.7999217 19.21633096 48.7999217 1.875 57.8125 C-6.54914874 62.29883089 -15.06343011 66.60352462 -23.59295654 70.88510132 C-25.14789015 71.66596839 -26.70213857 72.44820148 -28.25567627 73.23184204 C-30.44832945 74.33712906 -32.64365629 75.43691186 -34.83984375 76.53515625 C-35.5025679 76.87009094 -36.16529205 77.20502563 -36.84809875 77.55010986 C-43.26413159 80.7424108 -43.26413159 80.7424108 -46 81 C-48.75 79.0625 -48.75 79.0625 -51 77 C-38.06145884 56.31274163 -24.38655416 36.12829743 -10.69239807 15.93684387 C-7.10251005 10.64155658 -3.54103517 5.32808016 0 0 Z " fill="#63A695" transform="translate(214,17)"/>
<path d="M0 0 C4.24267133 0.92302613 7.70256397 2.9179181 11.4375 5.0625 C12.13818604 5.46154541 12.83887207 5.86059082 13.56079102 6.27172852 C32.58418735 17.1683747 32.58418735 17.1683747 34 20 C25.78221045 31.1552122 17.203283 40.8242382 6.0625 49.1875 C5.41128174 49.6820166 4.76006348 50.1765332 4.08911133 50.68603516 C2.45175423 51.87641197 0.73027723 52.94924983 -1 54 C-4.50570452 52.83143183 -4.82807326 52.14156145 -6.70703125 49.09765625 C-7.20879883 48.29392578 -7.71056641 47.49019531 -8.22753906 46.66210938 C-8.75057617 45.80423828 -9.27361328 44.94636719 -9.8125 44.0625 C-10.34713867 43.19818359 -10.88177734 42.33386719 -11.43261719 41.44335938 C-12.48775071 39.73431312 -13.53912389 38.02293867 -14.58642578 36.30908203 C-15.75192225 34.4052365 -16.93426477 32.51171449 -18.12109375 30.62109375 C-22 24.3794964 -22 24.3794964 -22 21 C-19.83984375 19.203125 -19.83984375 19.203125 -16.9375 17.25 C-9.93970471 12.33895087 -4.45734878 7.310052 0 0 Z " fill="#575759" transform="translate(216,161)"/>
<path d="M0 0 C1.65991211 1.99023438 1.65991211 1.99023438 3.27734375 4.59375 C4.17163086 6.016875 4.17163086 6.016875 5.08398438 7.46875 C5.69564453 8.4690625 6.30730469 9.469375 6.9375 10.5 C7.54529297 11.469375 8.15308594 12.43875 8.77929688 13.4375 C12.36676718 19.19602839 15.77446977 25.0314185 19 31 C4.49634729 37.86609091 -8.92227139 41.8954487 -25 43 C-26.10742431 39.054368 -27.20989701 35.10738698 -28.30810547 31.15917969 C-28.68114739 29.8205986 -29.05546201 28.48237144 -29.43115234 27.14453125 C-31.58206402 19.48154993 -33.61434325 11.84434397 -35 4 C-34.41621582 3.95512451 -33.83243164 3.91024902 -33.23095703 3.86401367 C-30.52794858 3.64974755 -27.82661048 3.41870251 -25.125 3.1875 C-24.2071875 3.11724609 -23.289375 3.04699219 -22.34375 2.97460938 C-16.64118317 2.47262286 -11.58406731 1.4462736 -6.18701172 -0.4831543 C-3.60635565 -1.09302803 -2.41743197 -1.09821798 0 0 Z " fill="#575759" transform="translate(188,188)"/>
<path d="M0 0 C1.38110352 1.56616211 1.38110352 1.56616211 2.62890625 3.77734375 C3.10166992 4.59348145 3.57443359 5.40961914 4.06152344 6.25048828 C4.80450684 7.58055908 4.80450684 7.58055908 5.5625 8.9375 C6.61830033 10.76854064 7.67695346 12.59793894 8.73828125 14.42578125 C9.27533691 15.35471191 9.81239258 16.28364258 10.36572266 17.24072266 C13.30441166 22.20233949 16.49583996 26.99804992 19.69750977 31.79272461 C23 36.79447728 23 36.79447728 23 39 C12.28624661 42.83909496 3.37084887 44.18812066 -8 44 C-10.86044849 35.22322016 -13.32528467 26.3426397 -15.75 17.4375 C-16.22675171 15.7062085 -16.22675171 15.7062085 -16.71313477 13.93994141 C-17.15677368 12.29711182 -17.15677368 12.29711182 -17.609375 10.62109375 C-17.87717773 9.6355249 -18.14498047 8.64995605 -18.42089844 7.63452148 C-19 5 -19 5 -19 1 C-16.58343806 0.83168225 -14.16676951 0.66528738 -11.75 0.5 C-11.06808594 0.45230469 -10.38617188 0.40460938 -9.68359375 0.35546875 C-6.44268497 0.13521281 -3.2506634 0 0 0 Z " fill="#575759" transform="translate(159,141)"/>
<path d="M0 0 C3.08565497 2.71576573 5.07287319 6.08655828 7.1875 9.5625 C7.55552734 10.15224609 7.92355469 10.74199219 8.30273438 11.34960938 C11 15.74830415 11 15.74830415 11 18 C-5.44779081 25.60298497 -22.71000321 30.63068954 -41 30 C-41.48937429 28.67037928 -41.96583581 27.33600575 -42.4375 26 C-42.70433594 25.2575 -42.97117188 24.515 -43.24609375 23.75 C-44.22563333 20.17696444 -44.59815812 16.68290037 -45 13 C-44.4423999 12.90501221 -43.8847998 12.81002441 -43.31030273 12.7121582 C-28.08164019 10.07627773 -14.03717665 6.64918894 0 0 Z " fill="#565658" transform="translate(211,226)"/>
<path d="M0 0 C6.249375 -0.0928125 6.249375 -0.0928125 12.625 -0.1875 C13.92775879 -0.21481201 15.23051758 -0.24212402 16.57275391 -0.27026367 C23.51395346 -0.32023515 28.42606066 -0.1539251 33.828125 4.61328125 C34.29734375 5.17402344 34.7665625 5.73476563 35.25 6.3125 C35.72953125 6.86550781 36.2090625 7.41851562 36.703125 7.98828125 C40.04969375 13.17949482 40.35746925 18.39408959 40.3125 24.375 C40.30621582 25.50663574 40.30621582 25.50663574 40.29980469 26.66113281 C40.14446866 34.28581826 38.68630236 40.46738149 33 46 C25 50 25 50 0 50 C0 33.5 0 17 0 0 Z M7 6 C7 18.54 7 31.08 7 44 C18.39012191 44.54938228 18.39012191 44.54938228 28 41 C32.68234665 35.35717198 33.07653358 29.18458949 33 22 C32.4397634 16.00746919 30.28637515 12.09153992 26 8 C18.99861207 5.31483984 18.99861207 5.31483984 7 6 Z " fill="#575759" transform="translate(618,282)"/>
<path d="M0 0 C4.32541045 1.58488322 8.25981666 3.72431785 12.25 6 C12.93513672 6.38792725 13.62027344 6.77585449 14.32617188 7.17553711 C22.27106229 11.69172199 30.13899169 16.33982304 38 21 C34.75397712 30.53413002 26.4544614 37.08322103 18 42 C14.24772663 37.57607866 11.24525441 32.78669889 8.1875 27.875 C7.12404973 26.17425913 6.06024913 24.47373727 4.99609375 22.7734375 C4.4841748 21.95456055 3.97225586 21.13568359 3.44482422 20.29199219 C2.20155076 18.31972939 0.94062459 16.36228061 -0.33984375 14.4140625 C-0.97019531 13.45242187 -1.60054687 12.49078125 -2.25 11.5 C-2.79140625 10.6853125 -3.3328125 9.870625 -3.890625 9.03125 C-5 7 -5 7 -5 4 C-2.5 1.8125 -2.5 1.8125 0 0 Z " fill="#565658" transform="translate(171,134)"/>
<path d="M0 0 C6.4659375 -0.185625 6.4659375 -0.185625 13.0625 -0.375 C14.40836182 -0.42962402 15.75422363 -0.48424805 17.14086914 -0.54052734 C27.05464367 -0.67822894 27.05464367 -0.67822894 31.30859375 2.8984375 C34.73834938 6.44846919 35.17721101 8.89317756 35.25 13.8125 C35.27578125 14.85019531 35.3015625 15.88789063 35.328125 16.95703125 C34.82751495 21.59959351 32.56490132 25.0292489 29 28 C26.17588235 28.94137255 24.47081968 29.11725382 21.55078125 29.09765625 C20.78677002 29.09515869 20.02275879 29.09266113 19.2355957 29.09008789 C18.27097412 29.08098389 17.30635254 29.07187988 16.3125 29.0625 C11.7028125 29.0315625 11.7028125 29.0315625 7 29 C7 35.93 7 42.86 7 50 C4.69 50 2.38 50 0 50 C0 33.5 0 17 0 0 Z M7 6 C7 11.61 7 17.22 7 23 C17.54851881 23.73445081 17.54851881 23.73445081 27 20 C28.15907459 16.31823365 28.20866524 13.93899356 27.375 10.1875 C25.55677981 7.29487696 24.25493881 6.98755286 21 6 C17.41569055 5.75917126 17.41569055 5.75917126 13.6875 5.875 C11.480625 5.91625 9.27375 5.9575 7 6 Z " fill="#575759" transform="translate(322,282)"/>
<path d="M0 0 C2.31 0 4.62 0 7 0 C7 16.5 7 33 7 50 C4.69 50 2.38 50 0 50 C0 49.01 0 48.02 0 47 C-0.598125 47.495 -1.19625 47.99 -1.8125 48.5 C-6.52841115 50.71925231 -10.8740407 50.66335944 -16 50 C-20.19954858 48.09111428 -23.16126569 45.55351373 -25.30078125 41.3828125 C-27.15604532 35.06040421 -27.28816035 27.57411703 -25.046875 21.35546875 C-22.78370964 17.49519619 -20.295533 14.49409843 -16 13 C-10.30687777 12.48244343 -6.17717328 12.41141336 -1 15 C-0.67 10.05 -0.34 5.1 0 0 Z M-17 21 C-20.05919039 25.75008834 -20.39536762 30.47672108 -19.5078125 35.953125 C-18.80099745 38.80213334 -17.90361015 40.75645946 -16 43 C-13.06812987 44.74327413 -11.35094284 45.0143242 -7.9375 44.875 C-4.46939577 43.84194768 -3.17520188 42.87437391 -1 40 C1.63190399 34.73619203 1.27236787 29.61338768 0 24 C-1.41670711 20.85150394 -1.41670711 20.85150394 -4 19 C-9.2425198 17.4466608 -12.59269441 17.69452081 -17 21 Z " fill="#575759" transform="translate(1428,282)"/>
<path d="M0 0 C2.31 0 4.62 0 7 0 C7 16.5 7 33 7 50 C4.69 50 2.38 50 0 50 C0 49.01 0 48.02 0 47 C-0.598125 47.495 -1.19625 47.99 -1.8125 48.5 C-6.52841115 50.71925231 -10.8740407 50.66335944 -16 50 C-20.19954858 48.09111428 -23.16126569 45.55351373 -25.30078125 41.3828125 C-27.15604532 35.06040421 -27.28816035 27.57411703 -25.046875 21.35546875 C-22.78370964 17.49519619 -20.295533 14.49409843 -16 13 C-10.30687777 12.48244343 -6.17717328 12.41141336 -1 15 C-0.67 10.05 -0.34 5.1 0 0 Z M-17 21 C-20.05919039 25.75008834 -20.39536762 30.47672108 -19.5078125 35.953125 C-18.80099745 38.80213334 -17.90361015 40.75645946 -16 43 C-13.06812987 44.74327413 -11.35094284 45.0143242 -7.9375 44.875 C-4.46939577 43.84194768 -3.17520188 42.87437391 -1 40 C1.63190399 34.73619203 1.27236787 29.61338768 0 24 C-1.41670711 20.85150394 -1.41670711 20.85150394 -4 19 C-9.2425198 17.4466608 -12.59269441 17.69452081 -17 21 Z " fill="#575759" transform="translate(530,282)"/>
<path d="M0 0 C1.69576172 -0.03867187 1.69576172 -0.03867187 3.42578125 -0.078125 C7.02827832 0.28428189 8.82169627 1.07909027 11.6875 3.25 C13.94620108 6.63805161 13.98009413 8.02350741 14.1015625 12.01171875 C14.14023438 13.12998047 14.17890625 14.24824219 14.21875 15.40039062 C14.2496875 16.56763672 14.280625 17.73488281 14.3125 18.9375 C14.35117188 20.11634766 14.38984375 21.29519531 14.4296875 22.50976562 C14.52404391 25.42301977 14.60963161 28.33626607 14.6875 31.25 C15.6775 31.58 16.6675 31.91 17.6875 32.25 C17.6875 34.23 17.6875 36.21 17.6875 38.25 C11.16442308 38.61923077 11.16442308 38.61923077 8.75 36.75 C8.399375 36.255 8.04875 35.76 7.6875 35.25 C6.57375 35.745 6.57375 35.745 5.4375 36.25 C0.15849503 37.65773466 -4.88404181 37.88864214 -10.3125 37.25 C-13.38615786 35.44196596 -14.74269732 34.38960536 -16.3125 31.25 C-16.92828347 26.27974774 -17.14183112 22.49399668 -14.3125 18.25 C-8.29385517 14.23757012 -1.35574575 13.86954476 5.6875 13.25 C6.69861093 10.20086772 6.69861093 10.20086772 5.6875 7.25 C0.46324559 6.18444203 0.46324559 6.18444203 -4.6875 6.9375 C-6.62131685 8.49942899 -7.39608378 9.95895944 -8.3125 12.25 C-10.2925 12.25 -12.2725 12.25 -14.3125 12.25 C-13.94416144 5.86546499 -13.94416144 5.86546499 -10.875 2.875 C-6.92714834 0.37148431 -4.69702948 0.06383279 0 0 Z M-0.1875 19.5 C-1.44304687 19.73203125 -2.69859375 19.9640625 -3.9921875 20.203125 C-7.33953004 20.97813476 -7.33953004 20.97813476 -9.26171875 23.1953125 C-10.52091416 25.25510664 -10.52091416 25.25510664 -10.25 27.875 C-9.50710084 30.3051147 -9.50710084 30.3051147 -7.6875 31.625 C-4.22882124 32.53517862 -1.7723507 32.09978789 1.6875 31.25 C4.39317626 29.42660948 6.22478718 28.17542564 7.6875 25.25 C7.72772391 22.9170134 7.73070247 20.58293334 7.6875 18.25 C5.07450273 18.25 2.35812812 19.01065635 -0.1875 19.5 Z " fill="#575759" transform="translate(1330.3125,294.75)"/>
<path d="M0 0 C1.69576172 -0.03867187 1.69576172 -0.03867187 3.42578125 -0.078125 C7.02827832 0.28428189 8.82169627 1.07909027 11.6875 3.25 C13.94620108 6.63805161 13.98009413 8.02350741 14.1015625 12.01171875 C14.14023437 13.12998047 14.17890625 14.24824219 14.21875 15.40039062 C14.2496875 16.56763672 14.280625 17.73488281 14.3125 18.9375 C14.35117187 20.11634766 14.38984375 21.29519531 14.4296875 22.50976562 C14.52404391 25.42301977 14.60963161 28.33626607 14.6875 31.25 C15.6775 31.58 16.6675 31.91 17.6875 32.25 C17.6875 34.23 17.6875 36.21 17.6875 38.25 C11.16442308 38.61923077 11.16442308 38.61923077 8.75 36.75 C8.399375 36.255 8.04875 35.76 7.6875 35.25 C6.57375 35.745 6.57375 35.745 5.4375 36.25 C0.15849503 37.65773466 -4.88404181 37.88864214 -10.3125 37.25 C-13.38615786 35.44196596 -14.74269732 34.38960536 -16.3125 31.25 C-16.92828347 26.27974774 -17.14183112 22.49399668 -14.3125 18.25 C-8.29385517 14.23757012 -1.35574575 13.86954476 5.6875 13.25 C6.69861093 10.20086772 6.69861093 10.20086772 5.6875 7.25 C0.46324559 6.18444203 0.46324559 6.18444203 -4.6875 6.9375 C-6.62131685 8.49942899 -7.39608378 9.95895944 -8.3125 12.25 C-10.2925 12.25 -12.2725 12.25 -14.3125 12.25 C-13.94416144 5.86546499 -13.94416144 5.86546499 -10.875 2.875 C-6.92714834 0.37148431 -4.69702948 0.06383279 0 0 Z M-0.1875 19.5 C-1.44304688 19.73203125 -2.69859375 19.9640625 -3.9921875 20.203125 C-7.33953004 20.97813476 -7.33953004 20.97813476 -9.26171875 23.1953125 C-10.52091416 25.25510664 -10.52091416 25.25510664 -10.25 27.875 C-9.50710084 30.3051147 -9.50710084 30.3051147 -7.6875 31.625 C-4.22882124 32.53517862 -1.7723507 32.09978789 1.6875 31.25 C4.39317626 29.42660948 6.22478718 28.17542564 7.6875 25.25 C7.72772391 22.9170134 7.73070247 20.58293334 7.6875 18.25 C5.07450273 18.25 2.35812812 19.01065635 -0.1875 19.5 Z " fill="#575759" transform="translate(773.3125,294.75)"/>
<path d="M0 0 C1.69576172 -0.03867187 1.69576172 -0.03867187 3.42578125 -0.078125 C7.02827832 0.28428189 8.82169627 1.07909027 11.6875 3.25 C13.94620108 6.63805161 13.98009413 8.02350741 14.1015625 12.01171875 C14.14023437 13.12998047 14.17890625 14.24824219 14.21875 15.40039062 C14.2496875 16.56763672 14.280625 17.73488281 14.3125 18.9375 C14.35117187 20.11634766 14.38984375 21.29519531 14.4296875 22.50976562 C14.52404391 25.42301977 14.60963161 28.33626607 14.6875 31.25 C15.6775 31.58 16.6675 31.91 17.6875 32.25 C17.6875 34.23 17.6875 36.21 17.6875 38.25 C11.16442308 38.61923077 11.16442308 38.61923077 8.75 36.75 C8.399375 36.255 8.04875 35.76 7.6875 35.25 C6.57375 35.745 6.57375 35.745 5.4375 36.25 C0.15849503 37.65773466 -4.88404181 37.88864214 -10.3125 37.25 C-13.38615786 35.44196596 -14.74269732 34.38960536 -16.3125 31.25 C-16.92828347 26.27974774 -17.14183112 22.49399668 -14.3125 18.25 C-8.29385517 14.23757012 -1.35574575 13.86954476 5.6875 13.25 C6.69861093 10.20086772 6.69861093 10.20086772 5.6875 7.25 C0.46324559 6.18444203 0.46324559 6.18444203 -4.6875 6.9375 C-6.62131685 8.49942899 -7.39608378 9.95895944 -8.3125 12.25 C-10.2925 12.25 -12.2725 12.25 -14.3125 12.25 C-13.94416144 5.86546499 -13.94416144 5.86546499 -10.875 2.875 C-6.92714834 0.37148431 -4.69702948 0.06383279 0 0 Z M-0.1875 19.5 C-1.44304687 19.73203125 -2.69859375 19.9640625 -3.9921875 20.203125 C-7.33953004 20.97813476 -7.33953004 20.97813476 -9.26171875 23.1953125 C-10.52091416 25.25510664 -10.52091416 25.25510664 -10.25 27.875 C-9.50710084 30.3051147 -9.50710084 30.3051147 -7.6875 31.625 C-4.22882124 32.53517862 -1.7723507 32.09978789 1.6875 31.25 C4.39317626 29.42660948 6.22478718 28.17542564 7.6875 25.25 C7.72772391 22.9170134 7.73070247 20.58293334 7.6875 18.25 C5.07450273 18.25 2.35812812 19.01065635 -0.1875 19.5 Z " fill="#575759" transform="translate(409.3125,294.75)"/>
<path d="M0 0 C5.37359242 2.35683878 7.74694504 5.62733047 10 11 C10 14.3 10 17.6 10 21 C1.42 21.33 -7.16 21.66 -16 22 C-13.87858068 28.71017459 -13.87858068 28.71017459 -10.75 30.5 C-7.16279437 31.15221921 -4.52888265 30.9148955 -1 30 C-0.505 29.319375 -0.01 28.63875 0.5 27.9375 C1.2425 26.9784375 1.2425 26.9784375 2 26 C5.6875 25.75 5.6875 25.75 9 26 C8.84817368 28.65696068 8.52675976 30.44234524 6.66796875 32.41015625 C0.29945891 37.72499536 -4.87653264 37.69262206 -13 37 C-17.29741418 35.11516922 -20.12752734 32.55180606 -22.3046875 28.31640625 C-24.28851214 21.70737247 -24.20624371 13.71555839 -21.375 7.375 C-16.24953619 -0.8327874 -8.97698038 -1.10925745 0 0 Z M-14 8 C-15.43177815 10.37912009 -17 13.165682 -17 16 C-10.07 16 -3.14 16 4 16 C2.76925502 9.77742101 2.76925502 9.77742101 -1 6 C-6.30776706 4.59794832 -9.51301754 4.73674003 -14 8 Z " fill="#575759" transform="translate(1472,295)"/>
<path d="M0 0 C5.37359242 2.35683878 7.74694504 5.62733047 10 11 C10 14.3 10 17.6 10 21 C1.42 21.33 -7.16 21.66 -16 22 C-13.87858068 28.71017459 -13.87858068 28.71017459 -10.75 30.5 C-7.16279437 31.15221921 -4.52888265 30.9148955 -1 30 C-0.505 29.319375 -0.01 28.63875 0.5 27.9375 C1.2425 26.9784375 1.2425 26.9784375 2 26 C5.6875 25.75 5.6875 25.75 9 26 C8.84817368 28.65696068 8.52675976 30.44234524 6.66796875 32.41015625 C0.29945891 37.72499536 -4.87653264 37.69262206 -13 37 C-17.29741418 35.11516922 -20.12752734 32.55180606 -22.3046875 28.31640625 C-24.28851214 21.70737247 -24.20624371 13.71555839 -21.375 7.375 C-16.24953619 -0.8327874 -8.97698038 -1.10925745 0 0 Z M-14 8 C-15.43177815 10.37912009 -17 13.165682 -17 16 C-10.07 16 -3.14 16 4 16 C2.76925502 9.77742101 2.76925502 9.77742101 -1 6 C-6.30776706 4.59794832 -9.51301754 4.73674003 -14 8 Z " fill="#575759" transform="translate(1083,295)"/>
<path d="M0 0 C5.37359242 2.35683878 7.74694504 5.62733047 10 11 C10 14.3 10 17.6 10 21 C1.42 21.33 -7.16 21.66 -16 22 C-13.87858068 28.71017459 -13.87858068 28.71017459 -10.75 30.5 C-7.16279437 31.15221921 -4.52888265 30.9148955 -1 30 C-0.505 29.319375 -0.01 28.63875 0.5 27.9375 C1.2425 26.9784375 1.2425 26.9784375 2 26 C5.6875 25.75 5.6875 25.75 9 26 C8.84817368 28.65696068 8.52675976 30.44234524 6.66796875 32.41015625 C0.29945891 37.72499536 -4.87653264 37.69262206 -13 37 C-17.29741418 35.11516922 -20.12752734 32.55180606 -22.3046875 28.31640625 C-24.28851214 21.70737247 -24.20624371 13.71555839 -21.375 7.375 C-16.24953619 -0.8327874 -8.97698038 -1.10925745 0 0 Z M-14 8 C-15.43177815 10.37912009 -17 13.165682 -17 16 C-10.07 16 -3.14 16 4 16 C2.76925502 9.77742101 2.76925502 9.77742101 -1 6 C-6.30776706 4.59794832 -9.51301754 4.73674003 -14 8 Z " fill="#575759" transform="translate(694,295)"/>
<path d="M0 0 C5.37359242 2.35683878 7.74694504 5.62733047 10 11 C10 14.3 10 17.6 10 21 C1.42 21.33 -7.16 21.66 -16 22 C-13.87858068 28.71017459 -13.87858068 28.71017459 -10.75 30.5 C-7.16279437 31.15221921 -4.52888265 30.9148955 -1 30 C-0.505 29.319375 -0.01 28.63875 0.5 27.9375 C1.2425 26.9784375 1.2425 26.9784375 2 26 C5.6875 25.75 5.6875 25.75 9 26 C8.84817368 28.65696068 8.52675976 30.44234524 6.66796875 32.41015625 C0.29945891 37.72499536 -4.87653264 37.69262206 -13 37 C-17.29741418 35.11516922 -20.12752734 32.55180606 -22.3046875 28.31640625 C-24.28851214 21.70737247 -24.20624371 13.71555839 -21.375 7.375 C-16.24953619 -0.8327874 -8.97698038 -1.10925745 0 0 Z M-14 8 C-15.43177815 10.37912009 -17 13.165682 -17 16 C-10.07 16 -3.14 16 4 16 C2.76925502 9.77742101 2.76925502 9.77742101 -1 6 C-6.30776706 4.59794832 -9.51301754 4.73674003 -14 8 Z " fill="#575759" transform="translate(574,295)"/>
<path d="M0 0 C4.88157951 4.05067236 6.65020424 6.75113658 7.31640625 12.98046875 C7.71262102 25.92774498 7.71262102 25.92774498 2.9375 31.4375 C-2.36545077 35.83782085 -7.17037492 36.05823005 -13.96484375 35.81640625 C-19.78890345 35.10400551 -22.61656533 33.10588616 -26.5 28.625 C-29.63199929 22.37455986 -29.22626258 13.64494933 -27.40234375 7.05078125 C-25.629798 3.51336311 -22.85037978 0.86082663 -19.31640625 -0.90234375 C-13.22957595 -2.68514153 -5.76865984 -2.87810027 0 0 Z M-19.0625 6.4375 C-22.2989447 11.09535622 -22.31626575 15.91624992 -21.58203125 21.359375 C-20.56254948 25.43730209 -19.65480104 27.07486671 -16 29.3125 C-11.47717227 31.03819109 -7.43787807 30.33641408 -3.0625 28.4375 C0.10589599 25.17009164 0.65262517 21.20684833 0.9921875 16.78515625 C0.90176165 12.9033037 0.17166334 9.65288372 -2.0625 6.4375 C-7.54746413 2.58250163 -13.57753587 2.58250163 -19.0625 6.4375 Z " fill="#575759" transform="translate(1751.0625,296.5625)"/>
<path d="M0 0 C4.88157951 4.05067236 6.65020424 6.75113658 7.31640625 12.98046875 C7.71262102 25.92774498 7.71262102 25.92774498 2.9375 31.4375 C-2.36545077 35.83782085 -7.17037492 36.05823005 -13.96484375 35.81640625 C-19.78890345 35.10400551 -22.61656533 33.10588616 -26.5 28.625 C-29.63199929 22.37455986 -29.22626258 13.64494933 -27.40234375 7.05078125 C-25.629798 3.51336311 -22.85037978 0.86082663 -19.31640625 -0.90234375 C-13.22957595 -2.68514153 -5.76865984 -2.87810027 0 0 Z M-19.0625 6.4375 C-22.2989447 11.09535622 -22.31626575 15.91624992 -21.58203125 21.359375 C-20.56254948 25.43730209 -19.65480104 27.07486671 -16 29.3125 C-11.47717227 31.03819109 -7.43787807 30.33641408 -3.0625 28.4375 C0.10589599 25.17009164 0.65262517 21.20684833 0.9921875 16.78515625 C0.90176165 12.9033037 0.17166334 9.65288372 -2.0625 6.4375 C-7.54746413 2.58250163 -13.57753587 2.58250163 -19.0625 6.4375 Z " fill="#575759" transform="translate(1242.0625,296.5625)"/>
<path d="M0 0 C4.88157951 4.05067236 6.65020424 6.75113658 7.31640625 12.98046875 C7.71262102 25.92774498 7.71262102 25.92774498 2.9375 31.4375 C-2.36545077 35.83782085 -7.17037492 36.05823005 -13.96484375 35.81640625 C-19.78890345 35.10400551 -22.61656533 33.10588616 -26.5 28.625 C-29.63199929 22.37455986 -29.22626258 13.64494933 -27.40234375 7.05078125 C-25.629798 3.51336311 -22.85037978 0.86082663 -19.31640625 -0.90234375 C-13.22957595 -2.68514153 -5.76865984 -2.87810027 0 0 Z M-19.0625 6.4375 C-22.2989447 11.09535622 -22.31626575 15.91624992 -21.58203125 21.359375 C-20.56254948 25.43730209 -19.65480104 27.07486671 -16 29.3125 C-11.47717227 31.03819109 -7.43787807 30.33641408 -3.0625 28.4375 C0.10589599 25.17009164 0.65262517 21.20684833 0.9921875 16.78515625 C0.90176165 12.9033037 0.17166334 9.65288372 -2.0625 6.4375 C-7.54746413 2.58250163 -13.57753587 2.58250163 -19.0625 6.4375 Z " fill="#575759" transform="translate(983.0625,296.5625)"/>
<path d="M0 0 C4.88157951 4.05067236 6.65020424 6.75113658 7.31640625 12.98046875 C7.71262102 25.92774498 7.71262102 25.92774498 2.9375 31.4375 C-2.36545077 35.83782085 -7.17037492 36.05823005 -13.96484375 35.81640625 C-19.78890345 35.10400551 -22.61656533 33.10588616 -26.5 28.625 C-29.63199929 22.37455986 -29.22626258 13.64494933 -27.40234375 7.05078125 C-25.629798 3.51336311 -22.85037978 0.86082663 -19.31640625 -0.90234375 C-13.22957595 -2.68514153 -5.76865984 -2.87810027 0 0 Z M-19.0625 6.4375 C-22.2989447 11.09535622 -22.31626575 15.91624992 -21.58203125 21.359375 C-20.56254948 25.43730209 -19.65480104 27.07486671 -16 29.3125 C-11.47717227 31.03819109 -7.43787807 30.33641408 -3.0625 28.4375 C0.10589599 25.17009164 0.65262517 21.20684833 0.9921875 16.78515625 C0.90176165 12.9033037 0.17166334 9.65288372 -2.0625 6.4375 C-7.54746413 2.58250163 -13.57753587 2.58250163 -19.0625 6.4375 Z " fill="#575759" transform="translate(890.0625,296.5625)"/>
<path d="M0 0 C1.69576172 -0.03867187 1.69576172 -0.03867187 3.42578125 -0.078125 C7.72183121 0.35405248 10.13767397 2.07426991 13.5 4.625 C15.13764212 6.86598396 14.90673623 8.54608652 14.6875 11.25 C11.875 11.5 11.875 11.5 8.6875 11.25 C8.213125 10.610625 7.73875 9.97125 7.25 9.3125 C5.75169795 6.87994912 5.75169795 6.87994912 2.25 6.4375 C-0.67830492 6.28337869 -2.59928122 6.27324124 -5.3125 7.25 C-5.6425 8.57 -5.9725 9.89 -6.3125 11.25 C-2.30568543 13.07919796 1.55994428 14.52886955 5.8125 15.6875 C13.00011174 17.84597487 13.00011174 17.84597487 15.6875 21.25 C16.63933412 25.82051879 16.33196006 29.16822776 13.9375 33.1875 C8.74030798 37.95159269 3.90767951 37.66682675 -2.9453125 37.57421875 C-7.37398691 37.14779186 -9.15813858 36.31674027 -12.3125 33.25 C-14.4644437 30.02208445 -14.51336443 28.96599191 -14.3125 25.25 C-12.3325 25.25 -10.3525 25.25 -8.3125 25.25 C-7.6525 26.9 -6.9925 28.55 -6.3125 30.25 C0.92681792 31.57036675 0.92681792 31.57036675 7.6875 29.25 C8.0175 28.26 8.3475 27.27 8.6875 26.25 C8.3575 25.59 8.0275 24.93 7.6875 24.25 C4.15617051 23.14669408 0.618065 22.19017244 -2.96679688 21.28125 C-7.37324445 20.08396932 -10.56087833 19.14693017 -13.3125 15.25 C-14.11148225 12.16978565 -13.97129267 9.35573687 -13.3125 6.25 C-9.17057943 1.01810033 -6.47731363 0.08802691 0 0 Z " fill="#575759" transform="translate(729.3125,294.75)"/>
<path d="M0 0 C12.87 0 25.74 0 39 0 C39 1.98 39 3.96 39 6 C33.72 6 28.44 6 23 6 C23 20.52 23 35.04 23 50 C20.69 50 18.38 50 16 50 C16 35.48 16 20.96 16 6 C10.72 6 5.44 6 0 6 C0 4.02 0 2.04 0 0 Z " fill="#58585A" transform="translate(1511,282)"/>
<path d="M0 0 C12.87 0 25.74 0 39 0 C39 1.98 39 3.96 39 6 C33.72 6 28.44 6 23 6 C23 20.52 23 35.04 23 50 C20.69 50 18.38 50 16 50 C16 35.48 16 20.96 16 6 C10.72 6 5.44 6 0 6 C0 4.02 0 2.04 0 0 Z " fill="#58585A" transform="translate(1019,282)"/>
<path d="M0 0 C3.74030185 1.60298651 4.73158465 2.59737698 7 6 C7.22705078 9.1862793 7.22705078 9.1862793 7.1953125 13.07421875 C7.1924826 13.7580513 7.18965271 14.44188385 7.18673706 15.1464386 C7.17555684 17.32697165 7.15045691 19.50709145 7.125 21.6875 C7.11496738 23.16731177 7.10584202 24.64712999 7.09765625 26.12695312 C7.07562481 29.751436 7.04111002 33.37567766 7 37 C5.02 37 3.04 37 1 37 C0.98018066 36.26885986 0.96036133 35.53771973 0.93994141 34.78442383 C0.84447086 31.46009731 0.73488034 28.13638014 0.625 24.8125 C0.5940625 23.66201172 0.563125 22.51152344 0.53125 21.32617188 C0.49257813 20.21435547 0.45390625 19.10253906 0.4140625 17.95703125 C0.36693115 16.42526245 0.36693115 16.42526245 0.31884766 14.86254883 C-0.01442499 11.87049538 -0.59919534 9.66331333 -2 7 C-5.23542073 5.92152642 -7.35829694 5.86569006 -10.6875 6.5625 C-13.99745501 8.6200396 -14.59569368 10.33232847 -16 14 C-16.49655396 17.95382461 -16.60169326 21.89356726 -16.6875 25.875 C-16.72166016 26.94492187 -16.75582031 28.01484375 -16.79101562 29.1171875 C-16.87312498 31.74468689 -16.94239624 34.37186816 -17 37 C-18.98 37 -20.96 37 -23 37 C-23 25.12 -23 13.24 -23 1 C-21.02 1 -19.04 1 -17 1 C-16.67 1.66 -16.34 2.32 -16 3 C-15.401875 2.505 -14.80375 2.01 -14.1875 1.5 C-9.49562838 -0.70793959 -5.10376982 -0.57561314 0 0 Z " fill="#575759" transform="translate(463,295)"/>
<path d="M0 0 C1.98 0 3.96 0 6 0 C6.01981934 0.70084717 6.03963867 1.40169434 6.06005859 2.1237793 C6.15556166 5.31205162 6.26513871 8.49969147 6.375 11.6875 C6.4059375 12.79029297 6.436875 13.89308594 6.46875 15.02929688 C6.50742188 16.09599609 6.54609375 17.16269531 6.5859375 18.26171875 C6.6173584 19.24100342 6.6487793 20.22028809 6.68115234 21.22924805 C7.02029429 24.17635524 7.62611396 26.37153139 9 29 C12.21031826 30.07010609 14.37194572 30.11684731 17.6875 29.5 C20.96632262 27.37319614 21.95359877 24.63589006 23 21 C23.47649775 17.35677033 23.59967943 13.73340002 23.6875 10.0625 C23.72166016 9.09248047 23.75582031 8.12246094 23.79101562 7.12304688 C23.87288574 4.74881363 23.94223078 2.37492123 24 0 C25.98 0 27.96 0 30 0 C30 11.88 30 23.76 30 36 C28.02 36 26.04 36 24 36 C23.67 35.01 23.34 34.02 23 33 C22.401875 33.495 21.80375 33.99 21.1875 34.5 C16.49562838 36.70793959 12.10376982 36.57561314 7 36 C3.25969815 34.39701349 2.26841535 33.40262302 0 30 C-0.22705078 26.90551758 -0.22705078 26.90551758 -0.1953125 23.14453125 C-0.1924826 22.48289474 -0.18965271 21.82125824 -0.18673706 21.13957214 C-0.17555918 19.03036263 -0.15045981 16.92158075 -0.125 14.8125 C-0.11496707 13.38086552 -0.10584176 11.94922436 -0.09765625 10.51757812 C-0.07562795 7.01158023 -0.04111485 3.50583187 0 0 Z " fill="#575759" transform="translate(1588,296)"/>
<path d="M0 0 C1.98 0 3.96 0 6 0 C6 3.3 6 6.6 6 10 C8.31 10 10.62 10 13 10 C13 11.65 13 13.3 13 15 C10.69 15 8.38 15 6 15 C6.33 22.92 6.66 30.84 7 39 C9.98031281 39.69882131 9.98031281 39.69882131 13 40 C13 41.98 13 43.96 13 46 C11.39667209 46.08121924 9.79215974 46.13929134 8.1875 46.1875 C6.84751953 46.23970703 6.84751953 46.23970703 5.48046875 46.29296875 C3 46 3 46 1.36328125 44.8828125 C-0.63770817 42.11926837 -0.33885807 39.96254443 -0.29296875 36.58203125 C-0.28330078 35.32841797 -0.27363281 34.07480469 -0.26367188 32.78320312 C-0.23853516 31.47287109 -0.21339844 30.16253906 -0.1875 28.8125 C-0.17244967 27.47722837 -0.15876187 26.14194063 -0.14648438 24.80664062 C-0.11107694 21.53735424 -0.0616889 18.26887907 0 15 C-1.98 15 -3.96 15 -6 15 C-6 13.35 -6 11.7 -6 10 C-4.02 10 -2.04 10 0 10 C0 6.7 0 3.4 0 0 Z " fill="#575759" transform="translate(1192,286)"/>
<path d="M0 0 C1.98 0 3.96 0 6 0 C6.10139564 6.62014692 6.17146336 13.24009372 6.21972656 19.86083984 C6.23984556 22.11319461 6.26714408 24.36549713 6.30175781 26.61767578 C6.35026209 29.85462331 6.37296605 33.09088047 6.390625 36.328125 C6.41127014 37.33554749 6.43191528 38.34296997 6.45318604 39.38092041 C6.45542867 46.36343493 6.45542867 46.36343493 4.109375 49.64257812 C0.63132109 51.88077022 -1.94713783 51.27019081 -6 51 C-6 49.35 -6 47.7 -6 46 C-3.525 45.505 -3.525 45.505 -1 45 C-0.67 30.15 -0.34 15.3 0 0 Z " fill="#575759" transform="translate(1634,296)"/>
<path d="M0 0 C1.98 0 3.96 0 6 0 C6 16.5 6 33 6 50 C4.02 50 2.04 50 0 50 C0 33.5 0 17 0 0 Z " fill="#58585A" transform="translate(1703,282)"/>
<path d="M0 0 C1.98 0 3.96 0 6 0 C6 16.5 6 33 6 50 C4.02 50 2.04 50 0 50 C0 33.5 0 17 0 0 Z " fill="#58585A" transform="translate(1680,282)"/>
<path d="M0 0 C1.98 0 3.96 0 6 0 C6 16.5 6 33 6 50 C4.02 50 2.04 50 0 50 C0 33.5 0 17 0 0 Z " fill="#58585A" transform="translate(1362,282)"/>
<path d="M0 0 C1.98 0 3.96 0 6 0 C6 16.5 6 33 6 50 C4.02 50 2.04 50 0 50 C0 33.5 0 17 0 0 Z " fill="#58585A" transform="translate(935,282)"/>
<path d="M0 0 C1.98 0 3.96 0 6 0 C6 16.5 6 33 6 50 C4.02 50 2.04 50 0 50 C0 33.5 0 17 0 0 Z " fill="#58585A" transform="translate(912,282)"/>
<path d="M0 0 C1.98 0 3.96 0 6 0 C6 16.5 6 33 6 50 C4.02 50 2.04 50 0 50 C0 33.5 0 17 0 0 Z " fill="#58585A" transform="translate(373,282)"/>
<path d="M0 0 C0 1.98 0 3.96 0 6 C-0.55429688 6.15855469 -1.10859375 6.31710937 -1.6796875 6.48046875 C-2.40414063 6.71378906 -3.12859375 6.94710938 -3.875 7.1875 C-4.59429688 7.40792969 -5.31359375 7.62835938 -6.0546875 7.85546875 C-8.76949889 9.4527373 -9.0341184 11.03768494 -10 14 C-10.35976806 16.69993904 -10.35976806 16.69993904 -10.4140625 19.51953125 C-10.45273438 20.54111328 -10.49140625 21.56269531 -10.53125 22.61523438 C-10.5621875 23.67033203 -10.593125 24.72542969 -10.625 25.8125 C-10.66367188 26.88693359 -10.70234375 27.96136719 -10.7421875 29.06835938 C-10.83618613 31.71207088 -10.92184573 34.3557805 -11 37 C-12.98 37 -14.96 37 -17 37 C-17 25.12 -17 13.24 -17 1 C-15.02 1 -13.04 1 -11 1 C-10.67 1.66 -10.34 2.32 -10 3 C-9.46375 2.505 -8.9275 2.01 -8.375 1.5 C-5.40641555 -0.37489544 -3.44687573 -0.23501425 0 0 Z " fill="#575759" transform="translate(1574,295)"/>
<path d="M0 0 C0 1.98 0 3.96 0 6 C-0.55429688 6.15855469 -1.10859375 6.31710937 -1.6796875 6.48046875 C-2.40414063 6.71378906 -3.12859375 6.94710938 -3.875 7.1875 C-4.59429688 7.40792969 -5.31359375 7.62835938 -6.0546875 7.85546875 C-8.76949889 9.4527373 -9.0341184 11.03768494 -10 14 C-10.35976806 16.69993904 -10.35976806 16.69993904 -10.4140625 19.51953125 C-10.45273438 20.54111328 -10.49140625 21.56269531 -10.53125 22.61523438 C-10.5621875 23.67033203 -10.593125 24.72542969 -10.625 25.8125 C-10.66367188 26.88693359 -10.70234375 27.96136719 -10.7421875 29.06835938 C-10.83618613 31.71207088 -10.92184573 34.3557805 -11 37 C-12.98 37 -14.96 37 -17 37 C-17 25.12 -17 13.24 -17 1 C-15.02 1 -13.04 1 -11 1 C-10.67 1.66 -10.34 2.32 -10 3 C-9.46375 2.505 -8.9275 2.01 -8.375 1.5 C-5.40641555 -0.37489544 -3.44687573 -0.23501425 0 0 Z " fill="#575759" transform="translate(1282,295)"/>
<path d="M0 0 C0 1.98 0 3.96 0 6 C-0.55429688 6.15855469 -1.10859375 6.31710937 -1.6796875 6.48046875 C-2.40414063 6.71378906 -3.12859375 6.94710938 -3.875 7.1875 C-4.59429688 7.40792969 -5.31359375 7.62835938 -6.0546875 7.85546875 C-8.76949889 9.4527373 -9.0341184 11.03768494 -10 14 C-10.35976806 16.69993904 -10.35976806 16.69993904 -10.4140625 19.51953125 C-10.45273438 20.54111328 -10.49140625 21.56269531 -10.53125 22.61523438 C-10.5621875 23.67033203 -10.593125 24.72542969 -10.625 25.8125 C-10.66367188 26.88693359 -10.70234375 27.96136719 -10.7421875 29.06835938 C-10.83618613 31.71207088 -10.92184573 34.3557805 -11 37 C-12.98 37 -14.96 37 -17 37 C-17 25.12 -17 13.24 -17 1 C-15.02 1 -13.04 1 -11 1 C-10.67 1.66 -10.34 2.32 -10 3 C-9.46375 2.505 -8.9275 2.01 -8.375 1.5 C-5.40641555 -0.37489544 -3.44687573 -0.23501425 0 0 Z " fill="#575759" transform="translate(1155,295)"/>
<path d="M0 0 C0 1.98 0 3.96 0 6 C-0.55429688 6.15855469 -1.10859375 6.31710937 -1.6796875 6.48046875 C-2.40414063 6.71378906 -3.12859375 6.94710938 -3.875 7.1875 C-4.59429688 7.40792969 -5.31359375 7.62835938 -6.0546875 7.85546875 C-8.76949889 9.4527373 -9.0341184 11.03768494 -10 14 C-10.35976806 16.69993904 -10.35976806 16.69993904 -10.4140625 19.51953125 C-10.45273438 20.54111328 -10.49140625 21.56269531 -10.53125 22.61523438 C-10.5621875 23.67033203 -10.593125 24.72542969 -10.625 25.8125 C-10.66367188 26.88693359 -10.70234375 27.96136719 -10.7421875 29.06835938 C-10.83618613 31.71207088 -10.92184573 34.3557805 -11 37 C-12.98 37 -14.96 37 -17 37 C-17 25.12 -17 13.24 -17 1 C-15.02 1 -13.04 1 -11 1 C-10.67 1.66 -10.34 2.32 -10 3 C-9.46375 2.505 -8.9275 2.01 -8.375 1.5 C-5.40641555 -0.37489544 -3.44687573 -0.23501425 0 0 Z " fill="#575759" transform="translate(1125,295)"/>
<path d="M0 0 C0 1.98 0 3.96 0 6 C-0.55429687 6.15855469 -1.10859375 6.31710937 -1.6796875 6.48046875 C-2.40414062 6.71378906 -3.12859375 6.94710938 -3.875 7.1875 C-4.59429688 7.40792969 -5.31359375 7.62835938 -6.0546875 7.85546875 C-8.76949889 9.4527373 -9.0341184 11.03768494 -10 14 C-10.35976806 16.69993904 -10.35976806 16.69993904 -10.4140625 19.51953125 C-10.45273437 20.54111328 -10.49140625 21.56269531 -10.53125 22.61523438 C-10.5621875 23.67033203 -10.593125 24.72542969 -10.625 25.8125 C-10.66367187 26.88693359 -10.70234375 27.96136719 -10.7421875 29.06835938 C-10.83618613 31.71207088 -10.92184573 34.3557805 -11 37 C-12.98 37 -14.96 37 -17 37 C-17 25.12 -17 13.24 -17 1 C-15.02 1 -13.04 1 -11 1 C-10.67 1.66 -10.34 2.32 -10 3 C-9.46375 2.505 -8.9275 2.01 -8.375 1.5 C-5.40641555 -0.37489544 -3.44687573 -0.23501425 0 0 Z " fill="#575759" transform="translate(852,295)"/>
<path d="M0 0 C0 1.98 0 3.96 0 6 C-0.55429687 6.15855469 -1.10859375 6.31710937 -1.6796875 6.48046875 C-2.40414062 6.71378906 -3.12859375 6.94710938 -3.875 7.1875 C-4.59429688 7.40792969 -5.31359375 7.62835938 -6.0546875 7.85546875 C-8.76949889 9.4527373 -9.0341184 11.03768494 -10 14 C-10.35976806 16.69993904 -10.35976806 16.69993904 -10.4140625 19.51953125 C-10.45273437 20.54111328 -10.49140625 21.56269531 -10.53125 22.61523438 C-10.5621875 23.67033203 -10.593125 24.72542969 -10.625 25.8125 C-10.66367187 26.88693359 -10.70234375 27.96136719 -10.7421875 29.06835938 C-10.83618613 31.71207088 -10.92184573 34.3557805 -11 37 C-12.98 37 -14.96 37 -17 37 C-17 25.12 -17 13.24 -17 1 C-15.02 1 -13.04 1 -11 1 C-10.67 1.66 -10.34 2.32 -10 3 C-9.46375 2.505 -8.9275 2.01 -8.375 1.5 C-5.40641555 -0.37489544 -3.44687573 -0.23501425 0 0 Z " fill="#575759" transform="translate(822,295)"/>
<path d="M0 0 C1.98 0 3.96 0 6 0 C6 11.88 6 23.76 6 36 C4.02 36 2.04 36 0 36 C0 24.12 0 12.24 0 0 Z " fill="#58585A" transform="translate(1657,296)"/>
<path d="M0 0 C1.98 0 3.96 0 6 0 C6 11.88 6 23.76 6 36 C4.02 36 2.04 36 0 36 C0 24.12 0 12.24 0 0 Z " fill="#58585A" transform="translate(1295,296)"/>
<path d="M0 0 C1.98 0 3.96 0 6 0 C6 11.88 6 23.76 6 36 C4.02 36 2.04 36 0 36 C0 24.12 0 12.24 0 0 Z " fill="#58585A" transform="translate(1168,296)"/>
<path d="M0 0 C1.98 0 3.96 0 6 0 C6 2.31 6 4.62 6 7 C4.02 7 2.04 7 0 7 C0 4.69 0 2.38 0 0 Z " fill="#58585A" transform="translate(1657,282)"/>
<path d="M0 0 C1.98 0 3.96 0 6 0 C6 2.31 6 4.62 6 7 C4.02 7 2.04 7 0 7 C0 4.69 0 2.38 0 0 Z " fill="#58585A" transform="translate(1634,282)"/>
<path d="M0 0 C1.98 0 3.96 0 6 0 C6 2.31 6 4.62 6 7 C4.02 7 2.04 7 0 7 C0 4.69 0 2.38 0 0 Z " fill="#58585A" transform="translate(1295,282)"/>
<path d="M0 0 C1.98 0 3.96 0 6 0 C6 2.31 6 4.62 6 7 C4.02 7 2.04 7 0 7 C0 4.69 0 2.38 0 0 Z " fill="#58585A" transform="translate(1168,282)"/>
</svg>
